<?xml version="1.0" encoding="UTF-8"?>
<svg width="93px" height="93px" viewBox="0 0 93 93" version="1.1" xmlns="http://www.w3.org/2000/svg" xmlns:xlink="http://www.w3.org/1999/xlink">
    <!-- Generator: Sketch 39.1 (31720) - http://www.bohemiancoding.com/sketch -->
    <title>chat</title>
    <desc>Created with Sketch.</desc>
    <defs></defs>
    <g id="Page-1" stroke="none" stroke-width="1" fill="none" fill-rule="evenodd">
        <g id="chat">
            <g id="Share-Icon">
                <circle id="Oval-2" fill="#2EB6EA" opacity="0.149999991" cx="46.5" cy="46.5" r="46.5"></circle>
                <g stroke-width="1" transform="translate(23.000000, 23.000000)">
                    <path d="M45.7950039,31.03491 C45.8851213,26.681116 45.6917445,22.1020287 44.878811,17.8177001 C44.1522399,13.9783259 40.8817314,13.8412725 37.5999583,13.5915724 C33.2499192,13.2611421 28.764704,13.0151969 24.4071551,13.3681565 C21.4426701,13.6065919 19.3962555,14.6560834 19.0845997,17.8064355 C18.7579244,21.0957184 18.6922138,24.4206728 18.6396454,27.7230978 C18.5964641,30.4022112 18.5457731,33.0982216 18.6621747,35.7773351 C18.7785763,38.4864876 20.871927,39.8682868 23.4552907,39.982811 C27.392292,40.1574133 31.3480678,40.0353794 35.2813142,39.8063312 C35.7018618,39.7819244 37.0855385,39.4158227 37.4291108,39.6692777 C37.6450169,39.8269831 37.6224876,40.1198644 37.7388892,40.4315202 C38.4204016,42.2526415 39.1263207,43.876631 40.8854863,44.9242451 C41.8429831,45.4968657 42.9581851,45.742811 44.0658774,45.7409335 C42.4193585,43.8897731 41.488146,41.7701382 40.7634524,39.4402295 C45.3800887,38.4827327 45.7086415,35.2178566 45.7950039,31.03491" id="Fill-1" fill="#4BD772"></path>
                    <path d="M40.8856741,43.047176 C39.124631,41.9976845 38.4205893,40.3755724 37.7390769,38.5525737 C37.6226754,38.2427953 37.6433272,37.949914 37.4292986,37.7922086 C37.0857262,37.5387536 35.7020495,37.9048553 35.281502,37.9292621 C31.3482555,38.1583103 27.3924798,38.2803442 23.4554785,38.1057419 C20.8721147,37.9912177 18.778764,36.6075411 18.660485,33.900266 C18.6154263,32.815103 18.6079166,31.7280626 18.6041617,30.6410222 C18.5872647,32.3532516 18.5872647,34.069236 18.660485,35.7777106 C18.778764,38.4849857 20.8721147,39.8686623 23.4554785,39.9831864 C27.3924798,40.1577888 31.3482555,40.0357549 35.281502,39.8067066 C35.7020495,39.7822999 37.0857262,39.4161982 37.4292986,39.6696532 C37.6433272,39.8273585 37.6226754,40.1202399 37.7390769,40.4300183 C38.4205893,42.2530169 39.124631,43.8751291 40.8856741,44.9246206 C41.8431708,45.4972412 42.9564954,45.741309 44.0660652,45.741309 C43.4934446,45.0973455 43.0315932,44.4102008 42.6110456,43.7042816 C42.0065085,43.5747379 41.4207458,43.3663416 40.8856741,43.047176" id="Fill-3" fill="#000000" opacity="0.300000012"></path>
                    <path d="M45.7950039,29.1574654 C45.7086415,33.340412 45.3800887,36.6052881 40.7634524,37.5627849 C40.9436871,38.1429153 41.1370639,38.7099035 41.3510926,39.2637497 C45.3650691,38.1447927 45.7123963,35.01697 45.7950039,31.03491 C45.8175332,29.9065658 45.8194107,28.7632021 45.7987588,27.6123286 C45.7968814,28.1267484 45.8062686,28.648678 45.7950039,29.1574654" id="Fill-5" fill="#000000" opacity="0.300000012"></path>
                    <path d="M40.8856741,44.9246206 C39.124631,43.8751291 38.4205893,42.2530169 37.7390769,40.4300183 C37.6226754,40.1202399 37.6433272,39.8273585 37.4292986,39.6696532 C37.0857262,39.4161982 35.7020495,39.7822999 35.281502,39.8067066 C31.3482555,40.0357549 27.3924798,40.1577888 23.4554785,39.9831864 C20.8721147,39.8686623 18.778764,38.4849857 18.660485,35.7777106 C18.5459609,33.0985971 18.5966519,30.4025867 18.6398331,27.7234733 C18.6924016,24.4210482 18.7581121,21.0960939 19.0847875,17.806811 C19.3945658,14.6564589 21.4428579,13.6069674 24.4073429,13.3666545 C28.7648918,13.0155724 33.2501069,13.2615176 37.600146,13.5919478 C40.8819192,13.841648 44.1524276,13.9787014 44.8789987,17.8180756 C45.6900548,22.1024042 45.885309,26.6814915 45.7951917,31.0352855 C45.7088292,35.2182321 45.378399,38.4831082 40.7636402,39.440605 C41.4883338,41.7705137 42.4195463,43.8901486 44.0660652,45.741309 C42.9564954,45.741309 41.8431708,45.4972412 40.8856741,44.9246206 M13.9124276,34.9985711 C13.8748787,34.9873064 13.8617366,35.0042034 13.8260652,34.9966936 C13.2909935,34.8896793 13.1182686,35.1863155 13.0093768,35.593721 C12.9530535,35.8039948 12.9023625,36.0311656 12.8253872,36.2489492 C12.731515,36.5174237 12.5869518,36.7614915 12.4705502,37.0205789 C12.3560261,37.2777888 12.2546441,37.540631 12.1194681,37.7865763 C12.0387379,37.9311395 11.9486206,38.0644381 11.8603807,38.2052464 C11.6557392,38.5337992 11.4248136,38.8473325 11.1788683,39.149601 C11.0943833,39.2528605 11.0343051,39.3711395 10.9460652,39.4706441 C9.75576532,40.8092621 8.21062842,41.6728866 6.52656063,41.9714003 C6.44583051,41.9864198 6.36322295,41.9976845 6.28249283,42.0089492 C5.98210169,42.0521304 5.67795567,42.0765372 5.37005476,42.0821695 C5.26304042,42.0840469 5.15790352,42.0896793 5.05088918,42.0878018 C4.65662581,42.0784146 4.25860756,42.0483755 3.85871186,41.9770326 C6.02528292,39.9775541 7.53850326,37.591322 8.74382269,34.9253507 C6.33693872,34.1049074 4.29427901,32.7775541 4.08588266,30.0477497 C3.99576532,28.8724694 3.97323598,27.6840469 3.97135854,26.4956245 C3.9694811,25.158884 3.99388787,23.8221434 4.01078488,22.4947901 C4.01266232,22.312678 4.01641721,22.1286884 4.01829465,21.9465763 C4.05208866,18.2348683 4.13657366,14.5212829 4.35623468,10.8152073 C4.37500913,10.4772673 4.39002868,10.12994 4.40504824,9.77885789 C4.50643025,7.3625867 4.63785137,4.69473794 6.85135854,3.28289961 C9.95477445,1.30031812 14.9600417,1.96493351 18.4258044,2.00435984 C21.6850482,2.04003129 24.9574342,2.19585919 28.2129231,2.46808866 C28.5489857,2.49625033 28.8850482,2.51314733 29.2192334,2.54506389 C29.6191291,2.58261278 30.0246571,2.59575489 30.4264302,2.63705867 C31.1717757,2.71778879 31.8044746,2.87173924 32.3883598,3.06136115 C35.5631186,4.09020078 36.5262477,6.68107432 36.9186336,10.3740078 C36.9636923,10.8039426 36.991854,11.2338774 37.0312803,11.6638123 C36.9712021,11.6600574 36.9092464,11.654425 36.8491682,11.6506701 C32.5573299,11.3465241 28.0739922,11.0686623 23.7859087,11.5342686 C20.5604589,11.8853507 17.8419192,13.4548944 17.2861956,16.8812308 C16.7361043,20.2906701 16.8356089,23.9197705 16.7736532,27.3630039 C16.7285945,29.8243338 16.6009283,32.3701486 16.7173299,34.8596402 C16.7192073,34.8990665 16.7229622,34.9384928 16.7248396,34.9797966 C15.7879948,34.9891838 14.8511499,35.0060808 13.9124276,34.9985711 M46.6738357,45.6868631 C45.1775124,44.3726519 43.9684381,42.7373977 43.2230926,40.8881147 C48.2734185,39.2078018 47.6914107,33.3520522 47.6876558,29.0921304 C47.6839009,25.0612568 47.8754003,20.277528 46.6062477,16.3780756 C45.4365997,12.7865241 42.1998853,12.097502 38.9350091,11.8121304 C38.8861956,11.3183625 38.854279,10.8170847 38.8017106,10.3270717 C38.5482555,7.87137419 38.2872907,5.22980965 36.5600417,3.31293872 C34.4967301,1.02808866 31.4421278,0.815937419 28.5696375,0.607541069 C22.5768344,0.175728814 16.3437184,-0.348078227 10.3490378,0.314659713 C5.57657366,0.840344198 3.04202347,3.49692829 2.65339244,8.24123077 C2.22533507,13.4473846 2.13897262,18.6892099 2.12395306,23.9085059 C2.1126884,28.4031082 1.36546545,33.5679583 6.18298827,35.9635776 C4.70731682,38.7628475 2.45438331,40.7867327 0.000563233377,42.7017262 C4.63409648,44.4233429 9.3633794,44.4984407 12.7277601,40.2910874 C13.0713325,39.8611525 13.3811108,39.4049335 13.6570952,38.9280626 C13.9067953,38.5000052 14.1471082,37.4467588 14.4944355,37.1444902 C14.9393898,36.7614915 15.9250482,36.7370847 16.8787901,36.7708787 C17.3631708,40.0075932 20.2882295,41.725455 23.3897679,41.860631 C25.5807458,41.9545033 27.7754785,41.9526258 29.9683338,41.9038123 C31.3200939,41.8737731 32.6737314,41.8230821 34.0254915,41.7554941 C34.3746962,41.7385971 35.8616323,41.4513481 36.1301069,41.6372151 C36.4830665,41.8812829 36.8604329,43.3438123 37.1307849,43.7718696 C39.7066389,47.8478018 43.8182425,47.9566936 47.9993116,46.8490013 C47.5581121,46.4622477 47.1169126,46.0754941 46.6738357,45.6868631" id="Fill-7" fill="#1C562B"></path>
                    <path d="M13.9129909,34.9981956 C13.875442,34.9869309 13.8604224,35.0038279 13.8266284,34.9963181 C13.2915567,34.8893038 13.1169544,35.18594 13.0080626,35.5933455 C12.9517392,35.8054967 12.9029257,36.0307901 12.8259505,36.2485737 C12.7302008,36.5170482 12.587515,36.7629935 12.4711134,37.0202034 C12.3565893,37.2774133 12.2552073,37.5402555 12.1200313,37.7862008 C12.0393012,37.930764 11.9473064,38.0640626 11.8609439,38.2048709 C11.654425,38.5334237 11.4234993,38.846957 11.1775541,39.1492256 C11.0949465,39.252485 11.0348683,39.3726415 10.9466284,39.4702686 C9.75445111,40.8088866 8.21119166,41.6725111 6.52524641,41.9729022 C6.4445163,41.9860443 6.36378618,41.997309 6.28117862,42.0085737 C5.98078748,42.0517549 5.67664146,42.0761617 5.37061799,42.081794 C5.26360365,42.0836714 5.15846675,42.0893038 5.05145241,42.0874263 C4.65718905,42.0780391 4.2591708,42.048 3.8592751,41.9766571 C6.02396871,39.9771786 7.53718905,37.5909465 8.74438592,34.9249752 C6.33750196,34.1045319 4.29484224,32.7771786 4.08644589,30.0473742 C3.99632855,28.8720939 3.97379922,27.6836714 3.97192177,26.495249 C3.97004433,25.1585085 3.99445111,23.8217679 4.01134811,22.4944146 C4.01322555,22.3123025 4.01698044,22.1283129 4.01885789,21.9462008 C4.05077445,18.2344928 4.13525945,14.5209074 4.35492047,10.8148318 C4.37557236,10.4768918 4.39059192,10.131442 4.40561147,9.7784824 C4.50699348,7.36221121 4.6384146,4.69436245 6.85004433,3.28252412 C9.95533768,1.29994263 14.960605,1.96455802 18.4263677,2.00398435 C21.683734,2.0396558 24.9579974,2.1954837 28.2134863,2.46771317 C28.5476714,2.49587484 28.883734,2.51277184 29.2179192,2.5446884 C29.6196923,2.58223729 30.0252203,2.5953794 30.425116,2.63668318 C31.172339,2.7174133 31.8050378,2.87136375 32.3870456,3.06098566 C35.5618044,4.09170274 36.526811,6.68069883 36.9173194,10.3736323 C36.9642555,10.8035671 36.9924172,11.233502 37.0318435,11.6634368 C36.9717653,11.6596819 36.9098096,11.655927 36.8497314,11.6502947 C32.5578931,11.3461486 28.0745554,11.0682868 23.786472,11.5338931 C20.5610222,11.8849752 17.840605,13.4545189 17.2867588,16.8808553 C16.7347901,20.2902947 16.8361721,23.919395 16.7742164,27.3626284 C16.7291578,29.8239583 16.6014915,32.3697731 16.7178931,34.8592647 C16.7197705,34.898691 16.7235254,34.9381173 16.7254029,34.9794211 C15.788558,34.9888083 14.8498357,35.0057053 13.9129909,34.9981956" id="Fill-10" fill="#2EB6EA"></path>
                    <path d="M16.7026858,33.101601 C15.7733507,33.1128657 14.8421382,33.1278853 13.9128031,33.1203755 C13.8752542,33.1109883 13.8602347,33.1260078 13.8264407,33.1203755 C13.291369,33.0133611 13.1167666,33.3099974 13.0078748,33.7155254 C12.9515515,33.9276767 12.9027379,34.15297 12.8257627,34.372631 C12.7318905,34.6392282 12.5873272,34.8851734 12.4709257,35.1442608 C12.3564016,35.3995932 12.2550196,35.6624355 12.1198435,35.9083807 C12.0391134,36.0529439 11.9471186,36.1862425 11.8607562,36.3270508 C11.6542373,36.6574811 11.425189,36.9691369 11.1792438,37.2714055 C11.0947588,37.3746649 11.0346806,37.4948214 10.9464407,37.5943259 C9.75426336,38.9310665 8.21100391,39.794691 6.52693611,40.0950821 C6.44432855,40.1082243 6.36359844,40.1194889 6.28099087,40.1307536 C6.03316819,40.166425 5.78159061,40.1814446 5.52813559,40.1908318 C5.01559322,40.8141434 4.4673794,41.4130482 3.85908735,41.9762816 C4.25898305,42.049502 4.6570013,42.0776636 5.05126467,42.0870508 C5.15827901,42.0908057 5.26341591,42.083296 5.37043025,42.0814185 C5.67833116,42.0757862 5.98059974,42.0513794 6.28099087,42.0081982 C6.36359844,41.9969335 6.44432855,41.9856688 6.52693611,41.9725267 C8.21100391,41.6721356 9.75426336,40.8085111 10.9464407,39.4717705 C11.0346806,39.372266 11.0947588,39.2521095 11.1792438,39.1488501 C11.425189,38.8465815 11.6542373,38.5349257 11.8607562,38.2044954 C11.9471186,38.0636871 12.0391134,37.9303885 12.1198435,37.7858253 C12.2550196,37.5398801 12.3564016,37.2770378 12.4709257,37.0217053 C12.5873272,36.762618 12.7318905,36.5166728 12.8257627,36.2500756 C12.9027379,36.0304146 12.9515515,35.8051213 13.0078748,35.59297 C13.1167666,35.187442 13.291369,34.8908057 13.8264407,34.9978201 C13.8602347,35.0034524 13.8752542,34.9884329 13.9128031,34.9978201 C14.849648,35.0053299 15.7883703,34.9903103 16.7252151,34.9790456 C16.7233377,34.9396193 16.7195828,34.8983155 16.7177053,34.8588892 C16.6914211,34.2768814 16.7083181,33.6873638 16.7026858,33.101601" id="Fill-12" fill="#000000" opacity="0.300000012"></path>
                    <path d="M7.95754889,34.628339 C8.2316558,34.1101643 8.49825293,33.5882347 8.74419817,33.0475306 C6.33731421,32.2270874 4.2946545,30.899734 4.08625815,28.1699296 C4.00740548,27.1392125 3.99238592,26.0991082 3.98675359,25.0571265 C3.98112125,25.5377523 3.97173403,26.0146232 3.97173403,26.495249 C3.97361147,27.6836714 3.99614081,28.8720939 4.08625815,30.0473742 C4.27212516,32.4730326 5.9073794,33.7891213 7.95754889,34.628339" id="Fill-14" fill="#32B8CF"></path>
                    <path d="M36.838279,9.77285007 C32.5501956,9.4668266 28.0706128,9.19084224 23.7862842,9.6564485 C20.5608344,10.0075306 17.8404172,11.5770743 17.2865711,15.0034107 C16.7364798,18.4128501 16.8359844,22.0419505 16.7740287,25.4851838 C16.7421121,27.1636193 16.7008083,28.8796037 16.6970535,30.5937106 C16.7214602,29.5085476 16.7533768,28.4252621 16.7740287,27.3626284 C16.8359844,23.919395 16.7364798,20.2902947 17.2865711,16.8808553 C17.8404172,13.4545189 20.5608344,11.8849752 23.7862842,11.5338931 C28.0743677,11.0682868 32.5577053,11.3461486 36.8495437,11.6502947 C36.9096219,11.655927 36.9715776,11.6596819 37.0316558,11.6634368 C36.9922295,11.233502 36.9640678,10.8035671 36.9190091,10.3736323 C36.8964798,10.165236 36.8645632,9.97373664 36.838279,9.77285007" id="Fill-16" fill="#32B8CF"></path>
                </g>
            </g>
        </g>
    </g>
</svg>