<?xml version="1.0" encoding="UTF-8"?>
<svg width="93px" height="93px" viewBox="0 0 93 93" version="1.1" xmlns="http://www.w3.org/2000/svg" xmlns:xlink="http://www.w3.org/1999/xlink">
    <!-- Generator: Sketch 39.1 (31720) - http://www.bohemiancoding.com/sketch -->
    <title>clap</title>
    <desc>Created with Sketch.</desc>
    <defs></defs>
    <g id="Page-1" stroke="none" stroke-width="1" fill="none" fill-rule="evenodd">
        <g id="clap">
            <g id="Clap">
                <g id="Group-2">
                    <circle id="Oval-2" fill="#2EB6EA" opacity="0.149999991" cx="46.5" cy="46.5" r="46.5"></circle>
                    <g id="Clapping-Hands" transform="translate(16.000000, 17.000000)">
                        <path d="M50.3596594,48.4944866 C48.0553851,54.6226791 41.2020823,57.697422 34.4168023,55.6703062 C25.937328,53.1215062 9.42477943,43.8461738 3.74699657,39.0402911 C1.69143086,37.3027633 2.18459657,36.1806099 2.37165943,35.7590039 C2.55659657,35.3395272 2.98386514,35.1287242 3.31122514,35.0243874 C3.99357943,34.8093257 4.837488,34.8753347 5.36253943,35.1947332 C5.38379657,35.2053798 5.40505371,35.2053798 5.42418514,35.2160265 C10.3749737,38.5697107 17.4642309,42.4621137 24.1240937,45.4069678 C24.2686423,45.4708475 24.4174423,45.500658 24.5641166,45.500658 C24.985008,45.500658 25.386768,45.2557859 25.5674537,44.8469558 C25.8097851,44.2933317 25.5610766,43.6481468 25.0062651,43.4032746 C17.0135794,39.8707272 8.38955657,34.9583783 3.81501943,31.3555633 C3.75975086,31.3023302 3.71511086,31.2427092 3.647088,31.202252 C3.20493943,30.9339573 2.89458514,30.5123513 2.769168,30.0119603 C2.64587657,29.515828 2.724528,29.0005317 2.99024229,28.5576325 C3.21769371,28.1786129 3.74699657,27.8868956 4.405968,27.7804295 C5.090448,27.671834 5.80681371,27.7783002 6.27659657,28.0593708 C6.29360229,28.0700174 6.31273371,28.0700174 6.33186514,28.0785347 C11.2932823,31.5088746 18.6546309,35.5758821 25.5525737,38.6250731 C25.6949966,38.6889528 25.8437966,38.7187633 25.9925966,38.7187633 C26.413488,38.7187633 26.8131223,38.4760205 26.993808,38.0671904 C27.2361394,37.511437 26.9874309,36.866252 26.4347451,36.6213798 C18.4335566,33.0867032 9.80103086,28.1700956 5.22861943,24.5651513 C5.17760229,24.5183062 5.13721371,24.4608144 5.075568,24.4224866 C4.16576229,23.8709919 3.870288,22.6849588 4.41659657,21.7757377 C4.93101943,20.9218791 6.36800229,20.019046 8.230128,20.9836295 C15.5000709,26.7157678 24.5598651,31.3278821 30.8944937,34.1875633 C31.041168,34.2535723 31.1942194,34.2833829 31.3430194,34.2833829 C31.7617851,34.2833829 32.1592937,34.0427693 32.3421051,33.6360686 C32.5908137,33.0867032 32.3442309,32.4372595 31.7936709,32.1881287 C26.6749509,29.8778129 19.7642537,26.3984986 13.5210309,22.1292054 C13.4870194,22.1015242 13.4636366,22.0631964 13.4253737,22.0397738 C12.5963451,21.5372535 12.2732366,19.5804054 12.8620594,18.6009167 C13.125648,18.1601468 13.5465394,17.2509257 14.0439566,17.127425 C14.5434994,16.9996656 15.0579223,16.7441468 15.4979451,16.7441468 L15.5000709,16.7441468 C15.5021966,16.7441468 15.5021966,17.3467453 15.5043223,17.3488746 C16.7244823,18.0728445 18.2188594,19.2780415 19.8896709,20.2915994 C26.4496251,24.2713047 35.4328937,29.8735543 41.7909051,32.6842611 C41.9354537,32.7481408 42.0842537,32.8524776 42.2330537,32.8524776 C42.6518194,32.8524776 43.0535794,32.6480626 43.2342651,32.2392325 C43.4765966,31.6834791 43.227888,31.057458 42.6752023,30.8125859 C42.0204823,30.5229979 41.3211223,30.1993408 40.6153851,29.8565197 C40.6005051,29.8075453 40.6026309,29.7628295 40.5834994,29.7159844 C39.582288,27.4589017 38.5491909,25.123034 37.647888,21.6032626 C37.3906766,20.5939633 37.6011223,19.3845077 38.659728,18.9565137 C40.341168,18.2644836 41.3615109,19.0757558 42.7113394,22.1717919 C43.882608,24.8589979 44.8774423,26.5241287 46.0274537,28.449037 C46.5482537,29.3199302 47.1073166,30.2547032 47.7407794,31.3832445 L49.2181509,34.0193468 C49.224528,34.0321227 49.2372823,34.034252 49.2457851,34.047028 C49.254288,34.0619332 49.254288,34.0789678 49.2627909,34.0917438 C51.7966423,37.9181377 52.2260366,43.5714911 50.3596594,48.4944866 M51.1355451,32.9695904 C51.1334194,32.9653317 51.1334194,32.9589438 51.1312937,32.9546851 L49.6475451,30.3100656 C49.0034537,29.1623603 48.4337623,28.2105528 47.9044594,27.3247543 C46.7459451,25.3849408 45.831888,23.8560866 44.715888,21.29664 C43.9187451,19.4696806 42.0502423,15.204646 37.8349509,16.9251392 C35.8941737,17.7129889 34.9461051,19.8614761 35.5285509,22.1504986 C36.174768,24.6758761 36.9017623,26.6348535 37.6138766,28.3489588 C32.1656709,25.478631 25.9139451,21.6863062 21.0226766,18.7180295 C19.345488,17.6980836 17.8447337,16.7888626 16.6160709,16.060634 C16.6139451,16.060634 16.6096937,16.060634 16.607568,16.0585047 C15.670128,15.4984926 14.5711337,15.3387934 13.5146537,15.5985708 C12.4496709,15.8668656 11.5504937,16.5312144 10.9871794,17.4723753 C10.5896709,18.1345949 10.3898537,18.9841949 10.3770994,19.8572174 C10.0794994,19.6293798 9.76914514,19.4121889 9.47792229,19.182222 C9.44816229,19.1587994 9.41627657,19.1545408 9.38651657,19.1353768 C9.35888229,19.1183423 9.34400229,19.0927904 9.31424229,19.0757558 C6.444528,17.536255 3.68322514,18.7393227 2.54171657,20.6450671 C1.51712229,22.350655 1.87849371,24.5140475 3.29847086,25.8108054 C2.34189943,26.1195573 1.563888,26.6795693 1.117488,27.4269618 C0.547796571,28.3681227 0.381990857,29.4732415 0.645579429,30.5400325 C0.866653714,31.4237017 1.370448,32.1817408 2.069808,32.7438821 C2.099568,32.7736926 2.11657371,32.8141498 2.15058514,32.8397017 C2.22711086,32.9035814 2.32914514,32.973849 2.40992229,33.0377287 C1.46610514,33.3997137 0.739110857,34.0363814 0.369236571,34.8753347 C-0.240843429,36.2636535 -0.396020571,38.4036235 2.33552229,40.7139392 C8.28752229,45.7519182 24.9276137,55.1039062 33.7897166,57.7676896 C35.4137623,58.2553047 37.0399337,58.4874009 38.6257166,58.4874009 C44.7541509,58.4874009 50.2491223,55.0016986 52.4045966,49.2695603 C54.5005509,43.7460956 53.9988823,37.3645137 51.1355451,32.9695904" id="Fill-1" fill="#635719"></path>
                        <path d="M50.3596594,48.4944866 C48.0553851,54.6226791 41.2020823,57.697422 34.4168023,55.6703062 C25.937328,53.1215062 9.42477943,43.8461738 3.74699657,39.0402911 C1.69143086,37.3027633 2.18459657,36.1806099 2.37165943,35.7590039 C2.55659657,35.3395272 2.98386514,35.1287242 3.31122514,35.0243874 C3.99357943,34.8093257 4.837488,34.8753347 5.36253943,35.1947332 C5.38379657,35.2053798 5.40505371,35.2053798 5.42418514,35.2160265 C10.3749737,38.5697107 17.4642309,42.4621137 24.1240937,45.4069678 C24.2686423,45.4708475 24.4174423,45.500658 24.5641166,45.500658 C24.985008,45.500658 25.386768,45.2557859 25.5674537,44.8469558 C25.8097851,44.2933317 25.5610766,43.6481468 25.0062651,43.4032746 C17.0135794,39.8707272 8.38955657,34.9583783 3.81501943,31.3555633 C3.75975086,31.3023302 3.71511086,31.2427092 3.647088,31.202252 C3.20493943,30.9339573 2.89458514,30.5123513 2.769168,30.0119603 C2.64587657,29.515828 2.724528,29.0005317 2.99024229,28.5576325 C3.21769371,28.1786129 3.74699657,27.8868956 4.405968,27.7804295 C5.090448,27.671834 5.80681371,27.7783002 6.27659657,28.0593708 C6.29360229,28.0700174 6.31273371,28.0700174 6.33186514,28.0785347 C11.2932823,31.5088746 18.6546309,35.5758821 25.5525737,38.6250731 C25.6949966,38.6889528 25.8437966,38.7187633 25.9925966,38.7187633 C26.413488,38.7187633 26.8131223,38.4760205 26.993808,38.0671904 C27.2361394,37.511437 26.9874309,36.866252 26.4347451,36.6213798 C18.4335566,33.0867032 9.80103086,28.1700956 5.22861943,24.5651513 C5.17760229,24.5183062 5.13721371,24.4608144 5.075568,24.4224866 C4.16576229,23.8709919 3.870288,22.6849588 4.41659657,21.7757377 C4.93101943,20.9218791 6.36800229,20.019046 8.230128,20.9836295 C15.5000709,26.7157678 24.5598651,31.3278821 30.8944937,34.1875633 C31.041168,34.2535723 31.1942194,34.2833829 31.3430194,34.2833829 C31.7617851,34.2833829 32.1592937,34.0427693 32.3421051,33.6360686 C32.5908137,33.0867032 32.3442309,32.4372595 31.7936709,32.1881287 C26.6749509,29.8778129 19.7642537,26.3984986 13.5210309,22.1292054 C13.4870194,22.1015242 13.4636366,22.0631964 13.4253737,22.0397738 C12.5963451,21.5372535 12.2732366,19.5804054 12.8620594,18.6009167 C13.125648,18.1601468 13.5465394,17.2509257 14.0439566,17.127425 C14.5434994,16.9996656 15.0579223,16.7441468 15.4979451,16.7441468 L15.5000709,16.7441468 C15.5021966,16.7441468 15.5021966,17.3467453 15.5043223,17.3488746 C16.7244823,18.0728445 18.2188594,19.2780415 19.8896709,20.2915994 C26.4496251,24.2713047 35.4328937,29.8735543 41.7909051,32.6842611 C41.9354537,32.7481408 42.0842537,32.8524776 42.2330537,32.8524776 C42.6518194,32.8524776 43.0535794,32.6480626 43.2342651,32.2392325 C43.4765966,31.6834791 43.227888,31.057458 42.6752023,30.8125859 C42.0204823,30.5229979 41.3211223,30.1993408 40.6153851,29.8565197 C40.6005051,29.8075453 40.6026309,29.7628295 40.5834994,29.7159844 C39.582288,27.4589017 38.5491909,25.123034 37.647888,21.6032626 C37.3906766,20.5939633 37.6011223,19.3845077 38.659728,18.9565137 C40.341168,18.2644836 41.3615109,19.0757558 42.7113394,22.1717919 C43.882608,24.8589979 44.8774423,26.5241287 46.0274537,28.449037 C46.5482537,29.3199302 47.1073166,30.2547032 47.7407794,31.3832445 L49.2181509,34.0193468 C49.224528,34.0321227 49.2372823,34.034252 49.2457851,34.047028 C49.254288,34.0619332 49.254288,34.0789678 49.2627909,34.0917438 C51.7966423,37.9181377 52.2260366,43.5714911 50.3596594,48.4944866" id="Fill-3" fill="#FCBA14"></path>
                        <path d="M40.5828617,29.7159844 C40.6041189,29.7628295 40.6019931,29.8075453 40.6147474,29.8565197 C41.2248274,30.1524956 41.8179017,30.425049 42.3939703,30.6826971 C42.7489646,30.6337227 43.0784503,30.4612475 43.2336274,30.1099092 C43.4780846,29.5541558 43.2272503,28.9281347 42.6745646,28.6832626 C42.0198446,28.3936746 41.3226103,28.0700174 40.6147474,27.7271964 C40.6019931,27.678222 40.6041189,27.6335062 40.5828617,27.5866611 C39.6241646,25.4211392 38.6378331,23.1576686 37.7641646,19.874252 C37.5345874,20.3980656 37.500576,21.0262159 37.649376,21.6032626 C38.5485531,25.123034 39.583776,27.4589017 40.5828617,29.7159844" id="Fill-5" fill="#E2A714"></path>
                        <path d="M13.4257989,22.0404126 C13.4640617,22.0638352 13.4874446,22.102163 13.521456,22.1277149 C19.6796503,26.3395164 26.4776846,29.7762442 31.5730217,32.08656 C31.898256,32.014163 32.195856,31.8352998 32.3425303,31.5073841 C32.5891131,30.9580186 32.344656,30.3064457 31.794096,30.0594442 C26.675376,27.7491284 19.7646789,24.2698141 13.521456,19.9983916 C13.4874446,19.9728397 13.4640617,19.9345119 13.4257989,19.9110893 C13.119696,19.7258382 12.8858674,19.34256 12.7370674,18.8847555 C12.3416846,19.9174773 12.6669189,21.5804788 13.4257989,22.0404126" id="Fill-7" fill="#E2A714"></path>
                        <path d="M3.64687543,31.2016132 C3.71489829,31.2420704 3.75953829,31.3038208 3.81480686,31.3549245 C8.34682971,34.9257997 16.8581897,39.7785275 24.7913554,43.3046869 C25.1187154,43.2322899 25.4205669,43.0491681 25.5672411,42.719123 C25.8095726,42.1633696 25.560864,41.5181847 25.0060526,41.2733125 C17.0133669,37.7407651 8.389344,32.8284162 3.81480686,29.2256012 C3.75953829,29.1744974 3.71489829,29.1127471 3.64687543,29.0722899 C3.404544,28.9253666 3.211104,28.7252102 3.05805257,28.4973726 C3.04104686,28.5186659 3.00490971,28.5335711 2.99002971,28.5569937 C2.72431543,28.9998929 2.645664,29.5151892 2.76895543,30.0113215 C2.89437257,30.5117125 3.20472686,30.9333185 3.64687543,31.2016132" id="Fill-9" fill="#E2A714"></path>
                        <path d="M50.3596594,46.3651633 C48.0553851,52.4933558 41.2020823,55.5680986 34.4168023,53.5409829 C25.937328,50.9921829 9.42477943,41.7168505 3.74699657,36.9109678 C3.14754514,36.4041889 2.78192229,35.957031 2.545968,35.5567182 C2.48857371,35.6269859 2.40992229,35.6717017 2.37165943,35.7590039 C2.18672229,36.1806099 1.69143086,37.3027633 3.74699657,39.0402911 C9.42477943,43.8461738 25.937328,53.1215062 34.4168023,55.6703062 C41.2020823,57.697422 48.0553851,54.6226791 50.3596594,48.4944866 C51.2715909,46.0904806 51.6265851,43.5139994 51.4650309,41.0610189 C51.3651223,42.8453919 51.010128,44.6489287 50.3596594,46.3651633" id="Fill-11" fill="#E2A714"></path>
                        <path d="M5.07514286,24.4220608 C5.13678857,24.4603886 5.17717714,24.5178803 5.23032,24.5647254 C9.76021714,28.1377299 18.28008,32.9947164 26.2196229,36.5230051 C26.5469829,36.4506081 26.8488343,36.2674863 26.9933829,35.9374412 C27.23784,35.3838171 26.9870057,34.7365029 26.43432,34.4916307 C18.4331314,30.956954 9.80060571,26.0403465 5.23032,22.4354021 C5.17717714,22.388557 5.13678857,22.3310653 5.07514286,22.2927374 C4.82005714,22.1394262 4.62874286,21.9286232 4.47569143,21.6965269 C4.45656,21.7220788 4.43317714,21.7476307 4.41617143,21.7753119 C3.86986286,22.6845329 4.16533714,23.870566 5.07514286,24.4220608" id="Fill-13" fill="#E2A714"></path>
                        <path d="M53.2757143,48.9267392 C50.2933371,54.7525678 43.12968,57.0415904 36.6228686,54.2372716 C28.4898857,50.743052 13.1358514,39.6471483 8.03838857,34.2258911 C6.19539429,32.2647844 6.81185143,31.2065107 7.04568,30.8104565 C7.27525714,30.4144024 7.72590857,30.2504445 8.06177143,30.1865648 C8.76538286,30.0439002 9.59441143,30.214246 10.0833257,30.5868776 C10.0982057,30.5996535 10.1173371,30.6017829 10.1343429,30.6124295 C14.6727429,34.5090911 21.2752114,39.1893438 27.5609486,42.8730731 C27.7331314,42.9731513 27.9244457,43.0221257 28.1115086,43.0221257 C28.48776,43.0221257 28.8533829,42.8283573 29.0574514,42.4812776 C29.3614286,41.9595934 29.18712,41.2867272 28.66632,40.9801047 C21.1179086,36.5575002 13.0997143,30.6890851 8.96732571,26.5880084 C8.92056,26.5347753 8.88654857,26.473025 8.82915429,26.4283092 C7.98737143,25.7767362 7.83006857,24.5651513 8.47628571,23.7240686 C8.74625143,23.3706009 9.30531429,23.1427633 9.97066286,23.1129528 C10.6508914,23.1044355 11.3630057,23.2683934 11.7966514,23.6026971 C11.8115314,23.6133438 11.8285371,23.6154731 11.8434171,23.6261197 C16.3860686,27.599437 23.2393714,32.4841047 29.7483086,36.299852 C29.9204914,36.3999302 30.1118057,36.4489047 30.2988686,36.4489047 C30.67512,36.4489047 31.0407429,36.2530069 31.2448114,35.9080565 C31.5487886,35.384243 31.37448,34.7135062 30.85368,34.4068836 C23.3052686,29.9821498 15.2870743,24.1137347 11.1546857,20.012658 C11.10792,19.959425 11.0739086,19.8976746 11.0165143,19.8529588 C10.1747314,19.2035152 10.0174286,17.9919302 10.6636457,17.1508475 C11.2694743,16.3587392 12.7999886,15.6241227 14.5452,16.8016385 C21.1242857,23.3280144 29.5952571,28.936652 35.5621371,32.4968806 C35.7364457,32.6012174 35.9298857,32.6501919 36.1190743,32.6501919 C36.4932,32.6501919 36.8566971,32.4606821 37.0607657,32.1157317 C37.3689943,31.5961768 37.1989371,30.9233107 36.6802629,30.6124295 C31.8591429,27.7357137 25.3905943,23.4919723 19.6660457,18.5349077 C19.6362857,18.5050971 19.61928,18.4667693 19.5831429,18.4390881 C18.8178857,17.8450069 18.7201029,15.8626069 19.4130857,14.9597738 C19.7276914,14.5509438 20.1783429,14.289037 20.6863886,14.223028 C21.1923086,14.1548896 21.6982286,14.289037 22.1063657,14.6041768 C22.1063657,14.6041768 22.1084914,14.6063062 22.1106171,14.6063062 C22.1106171,14.6063062 22.1106171,14.6084355 22.1127429,14.6084355 C23.2414971,15.4644235 24.6168343,16.5312144 26.1558514,17.7236355 C32.2247657,22.42944 40.5363086,28.8749017 46.5414514,32.3946731 C46.7136343,32.4968806 46.9049486,32.545855 47.0920114,32.545855 C47.4682629,32.545855 47.8338857,32.3499573 48.0379543,32.0050069 C48.3419314,31.4811934 48.1676229,30.8104565 47.6446971,30.503834 C47.02824,30.141849 46.3713943,29.7308896 45.7081714,29.3092836 C45.6996686,29.2603092 45.7081714,29.2113347 45.6932914,29.1623603 C44.9556686,26.7988114 44.1925371,24.3586069 43.6993714,20.7664385 C43.5569486,19.7337167 43.90344,18.5540716 45.00456,18.247449 C46.7518971,17.7577047 47.6744571,18.6775723 48.66504,21.9056265 C49.5238286,24.7078159 50.3209714,26.473025 51.2456571,28.515046 C51.6644229,29.4413017 52.1129486,30.4356956 52.6167429,31.630246 L53.7858857,34.4175302 C53.7901371,34.4281768 53.8028914,34.4324355 53.8071429,34.4430821 C53.8156457,34.4601167 53.81352,34.4792806 53.8220229,34.4941859 C55.9030971,38.5846159 55.6905257,44.2486159 53.2757143,48.9267392 M55.80744,33.5870941 C55.8053143,33.5828355 55.80744,33.5785768 55.8053143,33.5743182 L54.63192,30.7785167 C54.1196229,29.5648024 53.6625943,28.5533738 53.2374514,27.6100836 C52.3085143,25.5574159 51.5730171,23.9306129 50.7567429,21.2647002 C50.1721714,19.3589558 48.8074629,14.8937648 44.4136114,16.1394189 C42.3963086,16.699431 41.21016,18.7265468 41.5332686,21.0666731 C41.8861371,23.6452836 42.38568,25.676658 42.9001029,27.4631603 C37.8068914,23.9881047 32.0228229,19.5037498 27.4950514,15.9924956 C25.9517829,14.7979453 24.57432,13.7268956 23.4413143,12.8687783 C23.4391886,12.8687783 23.4391886,12.866649 23.4391886,12.866649 C23.4370629,12.8645197 23.4349371,12.8645197 23.4349371,12.8645197 L23.4328114,12.8623904 C23.4328114,12.8623904 23.4306857,12.8623904 23.4306857,12.8602611 C22.5633943,12.1959122 21.49416,11.9105829 20.4036686,12.0489889 C19.3153029,12.1916535 18.3459771,12.7537949 17.6806286,13.6225588 C17.20872,14.2358039 16.9153714,15.0577227 16.8048343,15.9243573 C16.5348686,15.6645798 16.2500229,15.4133197 15.9843086,15.1492836 C15.9609257,15.1258611 15.92904,15.1173438 15.9035314,15.0960505 C15.8780229,15.0747573 15.8631429,15.0449468 15.8355086,15.0257829 C13.16136,13.1690129 10.2788914,14.0505528 8.92906286,15.8136325 C7.71528,17.3914611 7.83006857,19.5804054 9.09274286,21.0304746 C8.11066286,21.2285017 7.27313143,21.6948235 6.74170286,22.3868535 C5.47902857,24.0306911 5.66821714,26.328231 7.08181714,27.7719122 C7.10945143,27.8081107 7.12220571,27.8506971 7.15621714,27.8847663 C7.22636571,27.955034 7.31989714,28.0380776 7.39217143,28.1104746 C6.41221714,28.3617347 5.61932571,28.9111002 5.15592,29.7032084 C4.39278857,31.0106129 3.99528,33.118643 6.44622857,35.7270641 C11.7881486,41.410228 27.2590971,52.599822 35.7598286,56.2537408 C37.9195543,57.1799964 40.1430514,57.6228956 42.3006514,57.6228956 C47.71272,57.6228956 52.7081486,54.8356114 55.2207429,49.9296505 C57.9310286,44.6808686 58.1542286,38.2801227 55.80744,33.5870941" id="Fill-15" fill="#635719"></path>
                        <path d="M53.2757143,48.9267392 C50.2933371,54.7525678 43.12968,57.0415904 36.6228686,54.2372716 C28.4898857,50.743052 13.1358514,39.6471483 8.03838857,34.2258911 C6.19539429,32.2647844 6.81185143,31.2065107 7.04568,30.8104565 C7.27525714,30.4144024 7.72590857,30.2504445 8.06177143,30.1865648 C8.76538286,30.0439002 9.59441143,30.214246 10.0833257,30.5868776 C10.0982057,30.5996535 10.1173371,30.6017829 10.1343429,30.6124295 C14.6727429,34.5090911 21.2752114,39.1893438 27.5609486,42.8730731 C27.7331314,42.9731513 27.9244457,43.0221257 28.1115086,43.0221257 C28.48776,43.0221257 28.8533829,42.8283573 29.0574514,42.4812776 C29.3614286,41.9595934 29.18712,41.2867272 28.66632,40.9801047 C21.1179086,36.5575002 13.0997143,30.6890851 8.96732571,26.5880084 C8.92056,26.5347753 8.88654857,26.473025 8.82915429,26.4283092 C7.98737143,25.7767362 7.83006857,24.5651513 8.47628571,23.7240686 C8.74625143,23.3706009 9.30531429,23.1427633 9.97066286,23.1129528 C10.6508914,23.1044355 11.3630057,23.2683934 11.7966514,23.6026971 C11.8115314,23.6133438 11.8285371,23.6154731 11.8434171,23.6261197 C16.3860686,27.599437 23.2393714,32.4841047 29.7483086,36.299852 C29.9204914,36.3999302 30.1118057,36.4489047 30.2988686,36.4489047 C30.67512,36.4489047 31.0407429,36.2530069 31.2448114,35.9080565 C31.5487886,35.384243 31.37448,34.7135062 30.85368,34.4068836 C23.3052686,29.9821498 15.2870743,24.1137347 11.1546857,20.012658 C11.10792,19.959425 11.0739086,19.8976746 11.0165143,19.8529588 C10.1747314,19.2035152 10.0174286,17.9919302 10.6636457,17.1508475 C11.2694743,16.3587392 12.7999886,15.6241227 14.5452,16.8016385 C21.1242857,23.3280144 29.5952571,28.936652 35.5621371,32.4968806 C35.7364457,32.6012174 35.9298857,32.6501919 36.1190743,32.6501919 C36.4932,32.6501919 36.8566971,32.4606821 37.0607657,32.1157317 C37.3689943,31.5961768 37.1989371,30.9233107 36.6802629,30.6124295 C31.8591429,27.7357137 25.3905943,23.4919723 19.6660457,18.5349077 C19.6362857,18.5050971 19.61928,18.4667693 19.5831429,18.4390881 C18.8178857,17.8450069 18.7201029,15.8626069 19.4130857,14.9597738 C19.7276914,14.5509438 20.1783429,14.289037 20.6863886,14.223028 C21.1923086,14.1548896 21.6982286,14.289037 22.1063657,14.6041768 C22.1063657,14.6041768 22.1084914,14.6063062 22.1106171,14.6063062 C22.1106171,14.6063062 22.1106171,14.6084355 22.1127429,14.6084355 C23.2414971,15.4644235 24.6168343,16.5312144 26.1558514,17.7236355 C32.2247657,22.42944 40.5363086,28.8749017 46.5414514,32.3946731 C46.7136343,32.4968806 46.9049486,32.545855 47.0920114,32.545855 C47.4682629,32.545855 47.8338857,32.3499573 48.0379543,32.0050069 C48.3419314,31.4811934 48.1676229,30.8104565 47.6446971,30.503834 C47.02824,30.141849 46.3713943,29.7308896 45.7081714,29.3092836 C45.6996686,29.2603092 45.7081714,29.2113347 45.6932914,29.1623603 C44.9556686,26.7988114 44.1925371,24.3586069 43.6993714,20.7664385 C43.5569486,19.7337167 43.90344,18.5540716 45.00456,18.247449 C46.7518971,17.7577047 47.6744571,18.6775723 48.66504,21.9056265 C49.5238286,24.7078159 50.3209714,26.473025 51.2456571,28.515046 C51.6644229,29.4413017 52.1129486,30.4356956 52.6167429,31.630246 L53.7858857,34.4175302 C53.7901371,34.4281768 53.8028914,34.4324355 53.8071429,34.4430821 C53.8156457,34.4601167 53.81352,34.4792806 53.8220229,34.4941859 C55.9030971,38.5846159 55.6905257,44.2486159 53.2757143,48.9267392" id="Fill-17" fill="#FADC28"></path>
                        <path d="M53.2757143,48.9267392 C50.2933371,54.7525678 43.12968,57.0415904 36.6228686,54.2372716 C28.4898857,50.743052 13.1358514,39.6471483 8.03838857,34.2258911 C6.19539429,32.2647844 6.81185143,31.2065107 7.04568,30.8104565 C7.27525714,30.4144024 7.72590857,30.2504445 8.06177143,30.1865648 C8.76538286,30.0439002 9.59441143,30.214246 10.0833257,30.5868776 C10.0982057,30.5996535 10.1173371,30.6017829 10.1343429,30.6124295 C14.6727429,34.5090911 21.2752114,39.1893438 27.5609486,42.8730731 C27.7331314,42.9731513 27.9244457,43.0221257 28.1115086,43.0221257 C28.48776,43.0221257 28.8533829,42.8283573 29.0574514,42.4812776 C29.3614286,41.9595934 29.18712,41.2867272 28.66632,40.9801047 C21.1179086,36.5575002 13.0997143,30.6890851 8.96732571,26.5880084 C8.92056,26.5347753 8.88654857,26.473025 8.82915429,26.4283092 C7.98737143,25.7767362 7.83006857,24.5651513 8.47628571,23.7240686 C8.74625143,23.3706009 9.30531429,23.1427633 9.97066286,23.1129528 C10.6508914,23.1044355 11.3630057,23.2683934 11.7966514,23.6026971 C11.8115314,23.6133438 11.8285371,23.6154731 11.8434171,23.6261197 C16.3860686,27.599437 23.2393714,32.4841047 29.7483086,36.299852 C29.9204914,36.3999302 30.1118057,36.4489047 30.2988686,36.4489047 C30.67512,36.4489047 31.0407429,36.2530069 31.2448114,35.9080565 C31.5487886,35.384243 31.37448,34.7135062 30.85368,34.4068836 C23.3052686,29.9821498 15.2870743,24.1137347 11.1546857,20.012658 C11.10792,19.959425 11.0739086,19.8976746 11.0165143,19.8529588 C10.1747314,19.2035152 10.0174286,17.9919302 10.6636457,17.1508475 C11.2694743,16.3587392 12.7999886,15.6241227 14.5452,16.8016385 C21.1242857,23.3280144 29.5952571,28.936652 35.5621371,32.4968806 C35.7364457,32.6012174 35.9298857,32.6501919 36.1190743,32.6501919 C36.4932,32.6501919 36.8566971,32.4606821 37.0607657,32.1157317 C37.3689943,31.5961768 37.1989371,30.9233107 36.6802629,30.6124295 C31.8591429,27.7357137 25.3905943,23.4919723 19.6660457,18.5349077 C19.6362857,18.5050971 19.61928,18.4667693 19.5831429,18.4390881 C18.8178857,17.8450069 18.7201029,15.8626069 19.4130857,14.9597738 C19.7276914,14.5509438 20.1783429,14.289037 20.6863886,14.223028 C21.1923086,14.1548896 21.6982286,14.289037 22.1063657,14.6041768 C22.1063657,14.6041768 22.1084914,14.6063062 22.1106171,14.6063062 C22.1106171,14.6063062 22.1106171,14.6084355 22.1127429,14.6084355 C23.2414971,15.4644235 24.6168343,16.5312144 26.1558514,17.7236355 C32.2247657,22.42944 40.5363086,28.8749017 46.5414514,32.3946731 C46.7136343,32.4968806 46.9049486,32.545855 47.0920114,32.545855 C47.4682629,32.545855 47.8338857,32.3499573 48.0379543,32.0050069 C48.3419314,31.4811934 48.1676229,30.8104565 47.6446971,30.503834 C47.02824,30.141849 46.3713943,29.7308896 45.7081714,29.3092836 C45.6996686,29.2603092 45.7081714,29.2113347 45.6932914,29.1623603 C44.9556686,26.7988114 44.1925371,24.3586069 43.6993714,20.7664385 C43.5569486,19.7337167 43.90344,18.5540716 45.00456,18.247449 C46.7518971,17.7577047 47.6744571,18.6775723 48.66504,21.9056265 C49.5238286,24.7078159 50.3209714,26.473025 51.2456571,28.515046 C51.6644229,29.4413017 52.1129486,30.4356956 52.6167429,31.630246 L53.7858857,34.4175302 C53.7901371,34.4281768 53.8028914,34.4324355 53.8071429,34.4430821 C53.8156457,34.4601167 53.81352,34.4792806 53.8220229,34.4941859 C55.9030971,38.5846159 55.6905257,44.2486159 53.2757143,48.9267392" id="Fill-19" fill="#FADC28"></path>
                        <path d="M53.2757143,48.9267392 C50.2933371,54.7525678 43.12968,57.0415904 36.6228686,54.2372716 C28.4898857,50.743052 13.1358514,39.6471483 8.03838857,34.2258911 C6.19539429,32.2647844 6.81185143,31.2065107 7.04568,30.8104565 C7.27525714,30.4144024 7.72590857,30.2504445 8.06177143,30.1865648 C8.76538286,30.0439002 9.59441143,30.214246 10.0833257,30.5868776 C10.0982057,30.5996535 10.1173371,30.6017829 10.1343429,30.6124295 C14.6727429,34.5090911 21.2752114,39.1893438 27.5609486,42.8730731 C27.7331314,42.9731513 27.9244457,43.0221257 28.1115086,43.0221257 C28.48776,43.0221257 28.8533829,42.8283573 29.0574514,42.4812776 C29.3614286,41.9595934 29.18712,41.2867272 28.66632,40.9801047 C21.1179086,36.5575002 13.0997143,30.6890851 8.96732571,26.5880084 C8.92056,26.5347753 8.88654857,26.473025 8.82915429,26.4283092 C7.98737143,25.7767362 7.83006857,24.5651513 8.47628571,23.7240686 C8.74625143,23.3706009 9.30531429,23.1427633 9.97066286,23.1129528 C10.6508914,23.1044355 11.3630057,23.2683934 11.7966514,23.6026971 C11.8115314,23.6133438 11.8285371,23.6154731 11.8434171,23.6261197 C16.3860686,27.599437 23.2393714,32.4841047 29.7483086,36.299852 C29.9204914,36.3999302 30.1118057,36.4489047 30.2988686,36.4489047 C30.67512,36.4489047 31.0407429,36.2530069 31.2448114,35.9080565 C31.5487886,35.384243 31.37448,34.7135062 30.85368,34.4068836 C23.3052686,29.9821498 15.2870743,24.1137347 11.1546857,20.012658 C11.10792,19.959425 11.0739086,19.8976746 11.0165143,19.8529588 C10.1747314,19.2035152 10.0174286,17.9919302 10.6636457,17.1508475 C11.2694743,16.3587392 12.7999886,15.6241227 14.5452,16.8016385 C21.1242857,23.3280144 29.5952571,28.936652 35.5621371,32.4968806 C35.7364457,32.6012174 35.9298857,32.6501919 36.1190743,32.6501919 C36.4932,32.6501919 36.8566971,32.4606821 37.0607657,32.1157317 C37.3689943,31.5961768 37.1989371,30.9233107 36.6802629,30.6124295 C31.8591429,27.7357137 25.3905943,23.4919723 19.6660457,18.5349077 C19.6362857,18.5050971 19.61928,18.4667693 19.5831429,18.4390881 C18.8178857,17.8450069 18.7201029,15.8626069 19.4130857,14.9597738 C19.7276914,14.5509438 20.1783429,14.289037 20.6863886,14.223028 C21.1923086,14.1548896 21.6982286,14.289037 22.1063657,14.6041768 C22.1063657,14.6041768 22.1084914,14.6063062 22.1106171,14.6063062 C22.1106171,14.6063062 22.1106171,14.6084355 22.1127429,14.6084355 C23.2414971,15.4644235 24.6168343,16.5312144 26.1558514,17.7236355 C32.2247657,22.42944 40.5363086,28.8749017 46.5414514,32.3946731 C46.7136343,32.4968806 46.9049486,32.545855 47.0920114,32.545855 C47.4682629,32.545855 47.8338857,32.3499573 48.0379543,32.0050069 C48.3419314,31.4811934 48.1676229,30.8104565 47.6446971,30.503834 C47.02824,30.141849 46.3713943,29.7308896 45.7081714,29.3092836 C45.6996686,29.2603092 45.7081714,29.2113347 45.6932914,29.1623603 C44.9556686,26.7988114 44.1925371,24.3586069 43.6993714,20.7664385 C43.5569486,19.7337167 43.90344,18.5540716 45.00456,18.247449 C46.7518971,17.7577047 47.6744571,18.6775723 48.66504,21.9056265 C49.5238286,24.7078159 50.3209714,26.473025 51.2456571,28.515046 C51.6644229,29.4413017 52.1129486,30.4356956 52.6167429,31.630246 L53.7858857,34.4175302 C53.7901371,34.4281768 53.8028914,34.4324355 53.8071429,34.4430821 C53.8156457,34.4601167 53.81352,34.4792806 53.8220229,34.4941859 C55.9030971,38.5846159 55.6905257,44.2486159 53.2757143,48.9267392" id="Fill-21" fill="#FADC28"></path>
                        <path d="M45.6928663,29.1621474 C45.7077463,29.2111218 45.6992434,29.2600962 45.7077463,29.3112 C46.2285463,29.2771308 45.7077463,27.0817985 45.6928663,27.0328241 C45.0147634,24.858785 44.3239063,22.5782797 43.8328663,19.4375278 C43.6904434,19.8570045 43.6373006,20.321197 43.6989463,20.7662256 C44.192112,24.358394 44.9552434,26.8007278 45.6928663,29.1621474" id="Fill-23" fill="#E1C524"></path>
                        <path d="M11.1542606,20.0132968 C15.2377577,24.0653991 23.1156549,29.8401239 30.5854149,34.2456938 C30.8490034,34.1711675 31.0955863,34.0327615 31.2443863,33.7772427 C31.5483634,33.2555585 31.3740549,32.5848217 30.8532549,32.2781991 C23.3069691,27.8534653 15.2866491,21.9850502 11.1542606,17.8839735 C11.1074949,17.8307405 11.0734834,17.7689901 11.0160891,17.7242743 C10.846032,17.5922562 10.7248663,17.426169 10.6122034,17.2558232 C10.0510149,18.0905179 10.2083177,19.2275765 11.0160891,19.8535976 C11.0734834,19.8983134 11.1074949,19.9600638 11.1542606,20.0132968" id="Fill-25" fill="#E1C524"></path>
                        <path d="M19.6664709,18.5344818 C25.2847337,23.3999856 31.6151109,27.5734592 36.4064709,30.4459164 C36.6679337,30.3735194 36.9102651,30.2372427 37.0611909,29.9859826 C37.3694194,29.4664277 37.1993623,28.7935615 36.680688,28.4848096 C31.859568,25.6059645 25.3888937,21.3622232 19.6664709,16.4051585 C19.6367109,16.375348 19.6175794,16.3370202 19.583568,16.3093389 C19.3773737,16.1496397 19.2221966,15.8834743 19.1159109,15.5683344 C18.7885509,16.5605991 18.9607337,17.9553059 19.583568,18.4386623 C19.6175794,18.4663435 19.6367109,18.5046713 19.6664709,18.5344818" id="Fill-27" fill="#E1C524"></path>
                        <path d="M53.2757143,46.7974159 C50.2933371,52.6232445 43.12968,54.9122671 36.6228686,52.1079483 C28.4898857,48.6137287 13.1358514,37.517825 8.03838857,32.0965678 C7.57498286,31.6025648 7.26888,31.1681829 7.07118857,30.7849047 C7.06481143,30.7955513 7.05205714,30.7998099 7.04568,30.8104565 C6.81397714,31.2065107 6.19539429,32.2647844 8.03838857,34.2258911 C13.1358514,39.6471483 28.4898857,50.743052 36.6228686,54.2372716 C43.12968,57.0415904 50.2933371,54.7525678 53.2757143,48.9267392 C54.7700914,46.0308595 55.4163086,42.7559603 55.2016114,39.7131573 C55.0613143,42.1129047 54.4257257,44.5680144 53.2757143,46.7974159" id="Fill-29" fill="#E1C524"></path>
                        <path d="M8.966688,26.5871567 C13.0501851,30.6392589 20.9280823,36.4139838 28.3978423,40.8195537 C28.6614309,40.7450274 28.9080137,40.6066214 29.0568137,40.3511026 C29.3607909,39.8294183 29.1864823,39.1586815 28.6656823,38.8520589 C21.1193966,34.4273251 13.0990766,28.5589101 8.966688,24.4578334 C8.91992229,24.4046003 8.88591086,24.3428499 8.82851657,24.2981341 C8.65845943,24.1661161 8.53729371,24.0000289 8.42463086,23.829683 C7.86344229,24.6643777 8.02074514,25.8014364 8.82851657,26.4274574 C8.88591086,26.4721732 8.91992229,26.5339236 8.966688,26.5871567" id="Fill-31" fill="#E1C524"></path>
                        <path d="M33.006816,1.33487278 C33.8804846,4.12215699 34.6053531,6.96906226 35.0198674,9.86494195 C35.1516617,10.7911976 35.5831817,12.3221811 34.9220846,13.1419705 C34.1398217,14.1086833 32.8410103,13.8552938 32.2139246,12.8864517 C31.5825874,11.913351 31.3785189,10.1800818 31.0787931,9.04089383 C30.6940389,7.57379008 30.3517989,6.09391038 30.105216,4.59486677 C29.926656,3.50465323 29.3357074,1.49031338 30.1732389,0.553411128 C31.1234331,-0.509121203 32.6114331,0.0743133835 33.006816,1.33487278" id="Fill-33" fill="#2EB6EA"></path>
                        <path d="M39.5601806,4.82334316 C39.7536206,6.60558677 40.0916091,8.81369504 39.6877234,10.5895507 C39.3816206,11.9374123 38.2634949,12.3781823 37.7703291,10.8152589 C37.3345577,9.43971609 37.5216206,7.43602286 37.5875177,6.02215218 C37.615152,5.40677774 37.525872,4.34211609 38.1848434,3.97374316 C38.8459406,3.6032409 39.490032,4.18028752 39.5601806,4.82334316" id="Fill-35" fill="#2EB6EA"></path>
                        <path d="M47.5405371,2.72042346 C47.25144,5.08610165 46.8305486,7.44965053 46.1311886,9.73015579 C45.8888571,10.5201347 45.6911657,11.589055 44.7324686,11.7317197 C43.5845829,11.8999362 43.3465029,10.9417408 43.3401257,10.0602009 C43.3209943,7.93726556 44.0628686,5.42253474 44.6580686,3.40180692 C44.88552,2.62673323 45.0747086,1.43218286 45.9930171,1.17666406 C46.9453371,0.908369323 47.6468229,1.84953023 47.5405371,2.72042346" id="Fill-37" fill="#2EB6EA"></path>
                        <path d="M51.6550697,8.79218887 C51.1640297,9.84833323 50.6240983,10.9129949 49.956624,11.8690611 C49.2636411,12.863455 47.903184,13.4916054 48.3432069,11.7114911 C48.587664,10.7234851 49.465584,9.40756331 50.090544,8.61971368 C50.343504,8.30031519 50.6134697,7.68707008 51.117264,7.73817383 C51.6316869,7.78927759 51.8570126,8.35780692 51.6550697,8.79218887" id="Fill-39" fill="#2EB6EA"></path>
                        <path d="M59.9504571,11.3963513 C58.3412914,13.0614821 56.6279657,14.647828 54.7488343,16.0063362 C54.0983657,16.4769167 53.3182286,17.19024 52.4913257,16.7345648 C51.5028686,16.1915874 51.87912,15.3079182 52.3892914,14.6201468 C53.62008,12.9614039 55.6692686,11.447455 57.3145714,10.2294821 C57.9459086,9.7631603 58.7940686,8.94762947 59.6549829,9.2883212 C60.5499086,9.64178887 60.5435314,10.7831062 59.9504571,11.3963513" id="Fill-41" fill="#2EB6EA"></path>
                    </g>
                </g>
            </g>
        </g>
    </g>
</svg>