<svg width="93" height="114" viewBox="0 0 93 114" xmlns="http://www.w3.org/2000/svg"><title>Artboard</title><g fill="none" fill-rule="evenodd"><ellipse fill="#2EB6EA" opacity=".15" cx="46.5" cy="67.5" rx="46.5" ry="46.5"/><path d="M35.84 52.11c-3.95.194-7.545 2.365-9.38 5.669-4.16 7.484 1.777 17.205 8.722 23.81a52.308 52.308 0 0 0 6.472 5.207c1.077.738 2.337 1.571 3.629 2.149 1.062.472 1.943.428 3.14-.158 2.424-1.19 4.657-2.883 6.708-4.536 2.262-1.825 4.218-3.727 5.981-5.813 3.646-4.317 11.353-15.18 4.156-22.801-2.382-2.529-5.81-3.806-9.358-3.463-3.48.315-6.524 2.106-8.352 4.914a1.04 1.04 0 0 1-.858.474c-.29.06-.674-.166-.872-.451-2.213-3.211-5.616-5.015-9.404-5.015-.194 0-.388.004-.585.015z" fill="#FD669E"/><path d="M68.15 61.717c-.27 6.018-4.697 12.09-7.22 15.078-1.793 2.12-3.784 4.057-6.086 5.911-2.085 1.682-4.357 3.406-6.822 4.616-1.219.596-2.116.643-3.195.16-1.315-.586-2.596-1.435-3.694-2.184a53.443 53.443 0 0 1-6.582-5.299c-3.29-3.129-6.343-6.944-8.254-10.899 1.744 4.509 5.16 8.948 8.886 12.489a52.13 52.13 0 0 0 6.47 5.208c1.079.737 2.337 1.57 3.63 2.148 1.061.473 1.942.429 3.14-.16 2.425-1.188 4.658-2.883 6.707-4.535 2.262-1.823 4.22-3.726 5.983-5.811 2.747-3.253 7.793-10.223 7.038-16.722" fill="#000" opacity=".3"/><path d="M29.827 64.39a1.01 1.01 0 0 1-.304-.032c-.64-.158-1.048-.861-.91-1.57.995-5.087 5.553-8.3 10.115-7.168.643.16 1.05.86.912 1.569-.137.711-.774 1.17-1.408.997-3.319-.821-6.58 1.506-7.296 5.177-.12.594-.583 1.005-1.109 1.026" fill="#FFF" opacity=".3"/><path d="M36.424 52.096c-.194 0-.388.004-.585.015-3.948.193-7.544 2.364-9.378 5.668-4.162 7.484 1.776 17.205 8.721 23.81a52.308 52.308 0 0 0 6.472 5.207c1.077.738 2.337 1.571 3.629 2.149 1.062.472 1.943.428 3.14-.158 2.424-1.19 4.657-2.883 6.708-4.536 2.262-1.825 4.218-3.727 5.981-5.813 3.646-4.317 11.353-15.18 4.156-22.801-2.382-2.529-5.81-3.806-9.358-3.463-3.48.315-6.524 2.106-8.352 4.914a1.04 1.04 0 0 1-.858.474c-.29.06-.674-.166-.872-.451-2.213-3.211-5.616-5.015-9.404-5.015m10.228 39.272c-.737 0-1.463-.168-2.214-.504-1.45-.647-2.805-1.541-3.96-2.329a54.61 54.61 0 0 1-6.73-5.42c-7.515-7.148-13.855-17.825-9.11-26.361 2.186-3.931 6.439-6.514 11.101-6.741 4.268-.177 8.19 1.512 10.93 4.756 2.21-2.673 5.436-4.361 9.053-4.687 4.205-.378 8.237 1.117 11.059 4.106 8.362 8.86-.065 20.863-4.078 25.611-1.85 2.188-3.899 4.181-6.267 6.09-2.146 1.729-4.492 3.505-7.1 4.784-.946.464-1.822.695-2.684.695" fill="#65283F"/><g><path d="M60.49 14.256c-2.304.115-4.401 1.408-5.471 3.374-2.428 4.455 1.036 10.241 5.087 14.173a30.634 30.634 0 0 0 3.775 3.1c.628.438 1.364.935 2.117 1.278.62.282 1.134.255 1.833-.093 1.413-.71 2.716-1.717 3.912-2.7a25.609 25.609 0 0 0 3.49-3.46c2.126-2.57 6.622-9.037 2.423-13.573a6.516 6.516 0 0 0-5.459-2.061c-2.03.187-3.805 1.254-4.872 2.925a.604.604 0 0 1-.5.282c-.17.035-.393-.098-.509-.268-1.29-1.912-3.276-2.985-5.485-2.985-.114 0-.227.002-.341.008z" fill="#FD669E"/><path d="M79.338 19.974c-.158 3.583-2.74 7.196-4.212 8.975a25.929 25.929 0 0 1-3.55 3.519c-1.216 1.001-2.542 2.027-3.98 2.747-.71.356-1.234.383-1.864.096-.767-.35-1.514-.854-2.154-1.3a31.299 31.299 0 0 1-3.84-3.154c-1.919-1.863-3.7-4.134-4.815-6.488 1.018 2.684 3.01 5.327 5.184 7.434a30.53 30.53 0 0 0 3.774 3.1c.63.439 1.363.935 2.118 1.279.618.281 1.132.255 1.83-.095 1.416-.708 2.718-1.716 3.914-2.7a25.54 25.54 0 0 0 3.49-3.459c1.602-1.936 4.546-6.085 4.105-9.954" fill="#000" opacity=".3"/><path d="M56.983 21.565a.578.578 0 0 1-.178-.019c-.374-.093-.611-.512-.53-.935.58-3.027 3.239-4.94 5.9-4.266.375.095.612.513.532.934-.08.424-.452.696-.822.594-1.936-.49-3.838.896-4.256 3.08-.07.355-.34.6-.646.612" fill="#FFF" opacity=".3"/><path d="M60.83 14.248c-.113 0-.226.002-.34.008-2.304.115-4.401 1.408-5.471 3.374-2.428 4.455 1.036 10.241 5.087 14.173a30.634 30.634 0 0 0 3.775 3.1c.628.438 1.364.935 2.117 1.278.62.282 1.134.255 1.833-.093 1.413-.71 2.716-1.717 3.912-2.7a25.609 25.609 0 0 0 3.49-3.46c2.126-2.57 6.622-9.037 2.423-13.573a6.516 6.516 0 0 0-5.459-2.061c-2.03.187-3.805 1.254-4.872 2.925a.604.604 0 0 1-.5.282c-.17.035-.393-.098-.509-.268-1.29-1.912-3.276-2.985-5.485-2.985m5.966 23.376c-.43 0-.853-.1-1.292-.3-.846-.385-1.636-.918-2.31-1.386a31.983 31.983 0 0 1-3.925-3.227c-4.384-4.255-8.082-10.61-5.314-15.69 1.275-2.34 3.756-3.878 6.475-4.013 2.49-.105 4.777.9 6.376 2.83 1.289-1.59 3.171-2.595 5.28-2.79 2.454-.224 4.806.666 6.452 2.445 4.878 5.273-.038 12.418-2.38 15.245a26.71 26.71 0 0 1-3.655 3.625c-1.251 1.028-2.62 2.086-4.141 2.847-.552.276-1.063.414-1.566.414" fill="#65283F"/></g><g><path d="M17.885 1.005c-1.81.092-3.458 1.126-4.299 2.7-1.907 3.563.814 8.192 3.997 11.337.892.88 1.89 1.714 2.967 2.48.493.351 1.07.748 1.663 1.023.487.225.89.204 1.44-.075 1.11-.567 2.134-1.373 3.074-2.16a20.304 20.304 0 0 0 2.741-2.768c1.671-2.056 5.204-7.229 1.905-10.858a5.07 5.07 0 0 0-4.29-1.649 5.031 5.031 0 0 0-3.827 2.34.472.472 0 0 1-.394.226c-.133.028-.309-.079-.4-.215C21.45 1.857 19.89.998 18.153.998c-.088 0-.177.002-.267.007z" fill="#FD669E"/><path d="M32.694 5.58c-.124 2.865-2.153 5.756-3.31 7.18a20.558 20.558 0 0 1-2.789 2.814c-.955.801-1.997 1.622-3.127 2.198-.558.284-.97.306-1.464.076-.603-.279-1.19-.683-1.693-1.04a24.691 24.691 0 0 1-3.017-2.523c-1.507-1.49-2.907-3.307-3.783-5.19.8 2.147 2.365 4.261 4.073 5.947.89.88 1.888 1.714 2.965 2.48.495.351 1.071.748 1.664 1.023.486.225.89.204 1.44-.076 1.11-.566 2.134-1.373 3.073-2.16a20.25 20.25 0 0 0 2.743-2.767c1.258-1.549 3.571-4.868 3.225-7.963" fill="#000" opacity=".3"/><path d="M15.13 6.852a.447.447 0 0 1-.14-.015c-.294-.075-.48-.41-.417-.748.456-2.422 2.545-3.952 4.636-3.413.294.076.481.41.418.747-.063.34-.355.557-.646.475-1.52-.39-3.016.717-3.344 2.465-.054.283-.267.48-.508.49" fill="#FFF" opacity=".3"/><path d="M18.153.998c-.09 0-.178.002-.268.007-1.81.092-3.458 1.126-4.299 2.7-1.907 3.563.814 8.192 3.997 11.337.892.88 1.89 1.714 2.967 2.48.493.351 1.07.748 1.663 1.023.487.225.89.204 1.44-.075 1.11-.567 2.134-1.373 3.074-2.16a20.304 20.304 0 0 0 2.741-2.768c1.671-2.056 5.204-7.229 1.905-10.858a5.07 5.07 0 0 0-4.29-1.649 5.031 5.031 0 0 0-3.827 2.34.472.472 0 0 1-.394.226c-.133.028-.309-.079-.4-.215C21.45 1.857 19.89.998 18.153.998M22.84 19.7c-.337 0-.67-.08-1.014-.24-.665-.308-1.286-.734-1.815-1.109a25.231 25.231 0 0 1-3.085-2.58c-3.444-3.405-6.35-8.489-4.175-12.554A6.144 6.144 0 0 1 17.84.006c1.956-.084 3.753.72 5.01 2.265A5.978 5.978 0 0 1 26.996.04a6.03 6.03 0 0 1 5.07 1.955c3.832 4.22-.03 9.935-1.87 12.196a21.177 21.177 0 0 1-2.872 2.9c-.984.823-2.059 1.67-3.254 2.278-.434.221-.836.331-1.23.331" fill="#65283F"/></g></g></svg>