<?xml version="1.0" encoding="UTF-8"?>
<svg width="195px" height="36px" viewBox="0 0 195 36" version="1.1" xmlns="http://www.w3.org/2000/svg" xmlns:xlink="http://www.w3.org/1999/xlink">
    <!-- Generator: Sketch 39.1 (31720) - http://www.bohemiancoding.com/sketch -->
    <title>logo</title>
    <desc>Created with Sketch.</desc>
    <defs>
        <polygon id="path-1" points="37.7360265 30.1512315 0.0333774834 30.1512315 0.0333774834 0.18166423 37.7360265 0.18166423"></polygon>
        <path d="M6.34672848,1.18328927 C6.3112997,1.14492144 6.2747699,1.10655936 6.23713907,1.06930361 C5.544,0.37227193 4.63613245,0.024035575 3.72715232,0.024035575 C2.81650331,0.024035575 1.9058543,0.37394883 1.21049007,1.07377534 C0.517350993,1.76913012 0.170781457,2.68136404 0.170781457,3.59471589 C0.170781457,4.50862671 0.517350993,5.42365546 1.21049007,6.12515887 C1.72339073,6.63773148 2.35422517,6.96137329 3.01509934,7.09496637 C3.03568212,5.32024659 3.71992053,3.55502924 5.06837086,2.2045653 C5.46262073,1.80730182 5.8918884,1.46756501 6.34672848,1.1842383 L6.34672848,1.18328927 L6.34672848,1.18328927 Z" id="path-3"></path>
        <polygon id="path-5" points="0.0333774834 0.158187622 0.0333774834 21.9724284 6.91581457 21.9724284 6.91581457 0.158187622 0.0333774834 0.158187622"></polygon>
        <polygon id="path-7" points="27.1664901 0.18166423 0.401086093 0.18166423 0.401086093 10.4660955 27.1664901 10.4660955 27.1664901 0.18166423"></polygon>
        <polygon id="path-9" points="0.0595231788 21.7667286 19.629298 21.7667286 19.629298 0.0346559454 0.0595231788 0.0346559454 0.0595231788 21.7667286"></polygon>
    </defs>
    <g id="Page-1" stroke="none" stroke-width="1" fill="none" fill-rule="evenodd">
        <g id="logo">
            <g id="EDH-Logo">
                <g>
                    <path d="M39.6507815,16.9299883 C39.6507815,16.7438523 39.6313113,16.5666598 39.5962649,16.4218874 C39.409351,15.4610234 38.6411126,15.045711 37.4550993,15.045711 C36.0348874,15.045711 35.3000265,15.8601257 35.1459338,16.8461433 L35.1353642,16.9299883 L39.6507815,16.9299883 L39.6507815,16.9299883 Z M42.1168212,21.6437558 C41.0810066,22.7583358 39.4883444,23.4531316 37.3794437,23.4531316 C33.6011126,23.4531316 31.6006887,20.9115093 31.6006887,17.9176827 C31.6006887,14.9406252 33.5777483,12.380557 37.3560795,12.380557 C41.0287152,12.380557 42.8867285,14.7220692 42.8867285,17.7902383 C42.8867285,18.1591564 42.8561325,18.5526691 42.7910464,18.9255 L35.1108874,18.9255 C35.4129536,20.1965906 36.4053775,20.7952442 37.6959735,20.7952442 C38.6589139,20.7952442 39.7325563,20.4520385 40.615947,19.9003382 L42.1168212,21.6437558 L42.1168212,21.6437558 Z" id="Fill-1" fill="#203A44"></path>
                    <polyline id="Fill-2" fill="#203A44" points="47.124 23.2200424 42.8639205 12.6265024 46.4703576 12.6265024 48.928053 19.5275073 51.3857483 12.6265024 54.9921854 12.6265024 50.7315497 23.2200424 47.124 23.2200424"></polyline>
                    <path d="M63.0417219,16.9299883 C63.0417219,16.7438523 63.0228079,16.5666598 62.9872053,16.4218874 C62.8002914,15.4610234 62.032053,15.045711 60.846596,15.045711 C59.4263841,15.045711 58.6909669,15.8601257 58.5374305,16.8461433 L58.5268609,16.9299883 L63.0417219,16.9299883 L63.0417219,16.9299883 Z M65.5083179,21.6437558 C64.4725033,22.7583358 62.8792848,23.4531316 60.7703841,23.4531316 C56.992053,23.4531316 54.9921854,20.9115093 54.9921854,17.9176827 C54.9921854,14.9406252 56.9686887,12.380557 60.7475762,12.380557 C64.4196556,12.380557 66.2782252,14.7220692 66.2782252,17.7902383 C66.2782252,18.1591564 66.2470728,18.5526691 66.1819868,18.9255 L58.5018278,18.9255 C58.803894,20.1965906 59.7963179,20.7952442 61.0874702,20.7952442 C62.0504106,20.7952442 63.124053,20.4520385 64.0074437,19.9003382 L65.5083179,21.6437558 L65.5083179,21.6437558 Z" id="Fill-3" fill="#203A44"></path>
                    <path d="M74.0206887,15.2134011 L73.3831788,15.2134011 C72.8024106,15.2134011 71.9768742,15.3877987 71.2069669,16.4643689 L71.2069669,23.2200424 L67.6589404,23.2200424 L67.6589404,12.6265024 L70.7797351,12.6265024 L70.953298,14.0272734 C71.6948344,13.1021832 72.6238411,12.3878236 73.9216689,12.3598752 L74.0206887,12.3593163 L74.0206887,15.2134011" id="Fill-4" fill="#203A44"></path>
                    <path d="M81.6485563,25.1479191 C81.0472053,26.6096174 80.1944106,27.4570112 79.1769536,27.9444303 C78.1428079,28.4106087 76.9378808,28.5168124 75.6550728,28.5168124 L75.6550728,25.8678684 C76.7426225,25.8678684 77.4535629,25.7409829 77.9508874,25.4659712 C78.4621192,25.1479191 78.7402649,24.7029815 78.9855894,24.0886769 L79.3076821,23.2200424 L78.9093775,23.2200424 L74.6287152,12.6265024 L78.2373775,12.6265024 L80.653351,19.3743504 L83.0882384,12.6265024 L86.6946755,12.6265024 L81.6485563,25.1479191" id="Fill-5" fill="#203A44"></path>
                    <path d="M94.879947,16.4884045 C94.2930596,15.5722578 93.5821192,15.2111652 92.678702,15.2111652 C91.2006358,15.2111652 90.2849801,16.1066301 90.2849801,17.9204776 C90.2849801,19.7030229 91.2228874,20.6325848 92.7248742,20.6325848 C93.6216159,20.6325848 94.4271258,20.258077 94.879947,19.3542276 L94.879947,16.4884045 L94.879947,16.4884045 Z M95.3071788,23.2200424 L95.1491921,21.9685156 C94.3637086,22.9377641 93.0058013,23.4318908 91.6456689,23.4318908 C89.1440265,23.4318908 86.7380662,21.7941179 86.7380662,17.9037086 C86.7380662,14.2083787 89.1607152,12.3839108 91.7369007,12.3839108 C92.8544901,12.3839108 93.9064371,12.7259985 94.879947,13.5650078 L94.879947,8.24476121 L98.4285298,8.24476121 L98.4285298,23.2200424 L95.3071788,23.2200424 L95.3071788,23.2200424 Z" id="Fill-6" fill="#203A44"></path>
                    <path d="M106.836874,18.8427729 C106.347338,18.553787 105.658649,18.3888918 104.988318,18.3888918 C104.004795,18.3888918 103.123629,18.757251 103.123629,19.6314751 C103.123629,20.443095 103.921351,20.8623202 104.823656,20.8623202 C105.570199,20.8623202 106.290596,20.6387334 106.836874,20.0205161 L106.836874,18.8427729 L106.836874,18.8427729 Z M100.415603,13.6253762 C101.849166,12.8467354 103.622623,12.3850288 105.277033,12.3844698 C107.972821,12.3839108 110.376,13.6209045 110.376,16.496789 L110.376,23.2200424 L107.255205,23.2200424 L107.101669,21.994787 C106.262781,22.9931019 105.066199,23.5062334 103.762252,23.5062334 C101.774623,23.5062334 99.8153642,22.180923 99.8153642,19.8505902 C99.8153642,17.3285317 102.086146,16.2145107 104.345801,16.2145107 C105.224185,16.2145107 106.100901,16.3838777 106.827974,16.6968991 L106.825748,16.4179747 C106.781245,15.3190458 105.77547,14.8819337 104.61449,14.8819337 C103.435152,14.8819337 102.042199,15.3101023 101.23502,15.7500093 L100.415603,13.6253762 L100.415603,13.6253762 Z" id="Fill-7" fill="#203A44"></path>
                    <path d="M117.823073,25.1479191 C117.222278,26.6096174 116.369483,27.4570112 115.352026,27.9444303 C114.317325,28.4106087 113.112397,28.5168124 111.829589,28.5168124 L111.829589,25.8678684 C112.917695,25.8678684 113.628079,25.7409829 114.125404,25.4659712 C114.636636,25.1479191 114.914781,24.7029815 115.160662,24.0886769 L115.482199,23.2200424 L115.083894,23.2200424 L110.803788,12.6265024 L114.411894,12.6265024 L116.827868,19.3743504 L119.263311,12.6265024 L122.869192,12.6265024 L117.823073,25.1479191" id="Fill-8" fill="#203A44"></path>
                    <path d="M127.402967,13.7701486 C128.250199,12.9585288 129.158066,12.3570804 130.465907,12.3570804 C132.428503,12.3570804 134.576344,13.5627719 134.576344,16.4693996 L134.576344,23.2200424 L131.027762,23.2200424 L131.027762,17.2273587 C131.027762,15.7231788 130.278437,15.2111652 129.388371,15.2111652 C128.834861,15.2111652 128.262437,15.3419635 127.402967,16.5074094 L127.402967,23.2200424 L123.854384,23.2200424 L123.854384,8.24476121 L127.402967,8.24476121 L127.402967,13.7701486" id="Fill-9" fill="#203A44"></path>
                    <path d="M143.965987,16.9299883 C143.965987,16.7438523 143.947073,16.5666598 143.910914,16.4218874 C143.724,15.4610234 142.956318,15.045711 141.770861,15.045711 C140.350649,15.045711 139.615232,15.8601257 139.461139,16.8461433 L139.451126,16.9299883 L143.965987,16.9299883 L143.965987,16.9299883 Z M146.432583,21.6437558 C145.396212,22.7583358 143.80355,23.4531316 141.694649,23.4531316 C137.916318,23.4531316 135.915894,20.9115093 135.915894,17.9176827 C135.915894,14.9406252 137.892954,12.380557 141.671841,12.380557 C145.343921,12.380557 147.201934,14.7220692 147.201934,17.7902383 C147.201934,18.1591564 147.171338,18.5526691 147.106252,18.9255 L139.426093,18.9255 C139.728159,20.1965906 140.720583,20.7952442 142.011179,20.7952442 C142.974675,20.7952442 144.047762,20.4520385 144.931152,19.9003382 L146.432583,21.6437558 L146.432583,21.6437558 Z" id="Fill-10" fill="#203A44"></path>
                    <path d="M154.944397,15.2134011 L154.307444,15.2134011 C153.726675,15.2134011 152.901139,15.3877987 152.131232,16.4643689 L152.131232,23.2200424 L148.583205,23.2200424 L148.583205,12.6265024 L151.704,12.6265024 L151.877563,14.0272734 C152.619099,13.1021832 153.548106,12.3878236 154.845934,12.3598752 L154.944397,12.3593163 L154.944397,15.2134011" id="Fill-11" fill="#203A44"></path>
                    <path d="M161.433536,15.2111652 C159.967152,15.2111652 158.953589,16.1647627 158.953589,17.9238314 C158.953589,19.6817822 159.967152,20.6359386 161.433536,20.6359386 C162.938305,20.6359386 163.91404,19.7209098 163.91404,17.9238314 C163.91404,16.1099839 162.904927,15.2111652 161.434093,15.2111652 L161.433536,15.2111652 L161.433536,15.2111652 Z M167.462066,17.9238314 C167.462066,20.9590214 165.413245,23.4531316 161.434093,23.4531316 C157.486649,23.4531316 155.405563,20.9053606 155.405563,17.9238314 C155.405563,14.9411842 157.486649,12.3833519 161.434093,12.3833519 C165.312,12.3833519 167.462066,14.8411291 167.462066,17.9238314 L167.462066,17.9238314 Z" id="Fill-12" fill="#203A44"></path>
                    <path d="M3.99194702,11.7148275 C2.60566887,10.3123796 2.60566887,8.05359454 3.99194702,6.66344396 C5.38156291,5.2643499 7.6312053,5.2643499 9.01859603,6.65897222 C10.4109934,8.05359454 10.4109934,10.3084669 9.01859603,11.7148275 C7.6312053,13.1033012 5.38156291,13.1033012 3.99194702,11.7148275" id="Fill-13" fill="#FFFFFF"></path>
                    <g id="Group-21">
                        <mask id="mask-2" fill="white">
                            <use xlink:href="#path-1"></use>
                        </mask>
                        <g id="Clip-15"></g>
                        <path d="M2.63237086,22.9131696 C1.65107285,21.9254751 1.65107285,20.3324196 2.63237086,19.3486379 C3.61255629,18.3615024 5.19909934,18.3615024 6.17761589,19.3441662 C7.16225166,20.3324196 7.16225166,21.9221213 6.17761589,22.9131696 C5.19909934,23.8947154 3.61255629,23.8947154 2.63237086,22.9131696" id="Fill-14" fill="#FFFFFF" mask="url(#mask-2)"></path>
                        <path d="M0.434463576,4.33087524 C-0.138516556,3.75010867 -0.145748344,2.82334162 0.418331126,2.25710819 C0.983523179,1.68863889 1.9058543,1.69590546 2.48217219,2.27052339 C3.05960265,2.85240789 3.06794702,3.77470322 2.50108609,4.34820322 C1.93311258,4.91555458 1.01078146,4.90772904 0.434463576,4.33087524" id="Fill-16" fill="#FFFFFF" mask="url(#mask-2)"></path>
                        <path d="M7.84982781,17.7589362 C5.1112053,14.9937271 5.1112053,10.5370843 7.84982781,7.79423392 C10.5873377,5.03573246 15.0237616,5.03573246 17.7607152,7.78081871 C20.5126887,10.5370843 20.5126887,14.9825478 17.7607152,17.7589362 C15.0237616,20.5012276 10.5873377,20.5012276 7.84982781,17.7589362" id="Fill-17" fill="#FFFFFF" mask="url(#mask-2)"></path>
                        <path d="M24.7288212,21.9718694 C21.8110728,18.7555741 20.3458013,15.77125 20.3708344,13.1105677 C20.4008742,9.82160673 23.1678675,7.1704269 26.5317616,7.20452388 C29.585245,7.23303119 31.1790199,9.29338304 31.5901192,9.91104142 C32.0117881,9.30120858 33.6422781,7.26936404 36.694649,7.29898928 C37.0506755,7.30234308 37.397245,7.34258869 37.7360265,7.40351608 C37.6926358,3.51198879 34.4639205,0.340410819 30.4664106,0.297929337 C26.7937748,0.260478558 24.8328477,2.70428168 24.3243974,3.43708723 C23.8326358,2.69366131 21.9173245,0.216879142 18.2463576,0.18166423 C14.1971126,0.14253655 10.8699338,3.33200146 10.8348874,7.28389717 C10.8031788,10.4856594 12.5671788,14.0742266 16.0757086,17.9439542 C18.197404,20.2804357 22.7979338,23.7572096 24.1330331,23.7773324 C24.497404,23.7790093 25.1187815,23.5190897 25.8664371,23.1015414 C25.438649,22.7091467 25.049245,22.3245775 24.7288212,21.9718694" id="Fill-18" fill="#FFFFFF" mask="url(#mask-2)"></path>
                        <path d="M31.5901192,9.91104142 C31.7308609,9.70757749 32.0090066,9.34592593 32.4262252,8.95576706 C31.7247417,8.65448392 30.9598411,8.47281969 30.1593377,8.4185999 C30.9247947,8.99321784 31.3937483,9.61590692 31.5901192,9.91104142" id="Fill-19" fill="#FFFFFF" mask="url(#mask-2)"></path>
                        <path d="M24.7288212,21.9718694 C21.8110728,18.7555741 20.3458013,15.77125 20.3708344,13.1105677 C20.3841854,11.6309825 20.9549404,10.2833134 21.8817219,9.24810673 C21.0011126,8.71876511 19.8573775,8.30009893 18.4204768,8.28612476 C14.6621722,8.25202778 11.5741987,11.2106394 11.5430464,14.8791389 C11.5130066,17.8494888 13.1496159,21.1792544 16.4055894,24.7706165 C18.3743046,26.9394079 22.6455099,30.1652057 23.8838146,30.1842105 C24.8706755,30.1892412 27.8646358,28.1618684 30.0419603,26.2597042 C28.4153642,25.3206399 26.0210861,23.394999 24.7288212,21.9718694" id="Fill-20" fill="#FFFFFF" mask="url(#mask-2)"></path>
                    </g>
                    <g id="Group-24" transform="translate(2.781457, 5.589669)">
                        <mask id="mask-4" fill="white">
                            <use xlink:href="#path-3"></use>
                        </mask>
                        <g id="Clip-23"></g>
                        <polygon id="Fill-22" fill="#0DA74E" mask="url(#mask-4)" points="0.170781457 7.09552534 6.34672848 7.09552534 6.34672848 0.024035575 0.170781457 0.024035575"></polygon>
                    </g>
                    <g id="Group-28" transform="translate(0.000000, 1.676901)">
                        <mask id="mask-6" fill="white">
                            <use xlink:href="#path-5"></use>
                        </mask>
                        <g id="Clip-26"></g>
                        <path d="M4.40582781,21.9724284 C3.76442384,21.9724284 3.12246358,21.7270419 2.63237086,21.236269 C2.14172185,20.7421423 1.89639735,20.0970945 1.89639735,19.4526058 C1.89639735,18.807558 2.14172185,18.1636282 2.63237086,17.6717373 C3.12301987,17.1776106 3.76609272,16.9311062 4.40805298,16.9311062 C5.04890066,16.9311062 5.68919205,17.1764927 6.17761589,17.6672656 C6.66993377,18.1613923 6.91581457,18.8058811 6.91581457,19.4509288 C6.91581457,20.0954176 6.66993377,20.7404654 6.17761589,21.236269 C5.68863576,21.7270419 5.04723179,21.9724284 4.40582781,21.9724284" id="Fill-25" fill="#0DA74E" opacity="0.600000024" mask="url(#mask-6)"></path>
                        <path d="M1.48307285,3.09164571 C1.10535099,3.09164571 0.725960265,2.94575536 0.434463576,2.65397466 C0.144635762,2.35995809 -0.000556291391,1.97762476 7.39129138e-14,1.59864522 C0.000556291391,1.22805019 0.139629139,0.86025 0.418331126,0.580207602 C0.698701987,0.298488304 1.0664106,0.158187622 1.43634437,0.158187622 C1.81295364,0.158187622 2.19178808,0.303519006 2.48217219,0.593622807 C2.77422517,0.888198343 2.92108609,1.26941374 2.92108609,1.64895224 C2.92108609,2.0189883 2.78090066,2.38790643 2.50108609,2.67130263 C2.22015894,2.951904 1.85245033,3.09164571 1.48307285,3.09164571" id="Fill-27" fill="#0DA74E" opacity="0.600000024" mask="url(#mask-6)"></path>
                    </g>
                    <path d="M12.8052715,19.8159342 C11.0117881,19.8159342 9.21830464,19.1300819 7.84982781,17.7589362 C6.4807947,16.3760521 5.796,14.5705892 5.796,12.76848 C5.796,12.7405317 5.796,12.7125833 5.79655629,12.684635 C6.03019868,12.7321472 6.26829139,12.7561827 6.50582781,12.7561827 C7.41592053,12.7561827 8.32490066,12.4090643 9.01859603,11.7148275 C10.3737219,10.3464766 10.4098808,8.17433138 9.12874172,6.77356043 C9.70839735,6.41246784 10.3297748,6.14472271 10.9706225,5.96976608 C10.8855099,6.39569883 10.8387815,6.83504678 10.8348874,7.28389717 C10.8348874,7.31519932 10.8343311,7.34650146 10.8343311,7.37780361 C10.836,8.93340838 11.2593377,10.5795658 12.0987815,12.3045375 C11.7483179,13.0949167 11.5508344,13.9646691 11.5430464,14.8791389 L11.5430464,14.9663377 C11.5441589,16.4928762 11.9830728,18.1138801 12.8542252,19.8153752 C12.8380927,19.8159342 12.821404,19.8159342 12.8052715,19.8159342" id="Fill-29" fill="#0DA74E" opacity="0.600000024"></path>
                    <path d="M6.50582781,12.7561827 C6.26829139,12.7561827 6.03019868,12.7321472 5.79655629,12.684635 C5.81713907,10.9099152 6.50137748,9.14469786 7.84982781,7.79423392 C8.24423841,7.39680848 8.67369536,7.05695663 9.12874172,6.77356043 C10.4098808,8.17433138 10.3737219,10.3464766 9.01859603,11.7148275 C8.32490066,12.4090643 7.41592053,12.7561827 6.50582781,12.7561827" id="Fill-30" fill="#0E833F"></path>
                    <path d="M25.8664371,23.1021004 C25.4380927,22.7097057 25.049245,22.3251365 24.7288212,21.9718694 C25.049245,22.3245775 25.438649,22.7091467 25.8664371,23.1015414 C25.8664371,23.1015414 25.8664371,23.1015414 25.8664371,23.1021004" id="Fill-31" fill="#40A149"></path>
                    <path d="M20.3708344,13.1105677 L20.3708344,13.1016243 L20.3708344,13.1105677" id="Fill-32" fill="#40A149"></path>
                    <path d="M20.3708344,13.0988294 L20.3708344,13.0926808 L20.3708344,13.0988294" id="Fill-33" fill="#40A149"></path>
                    <path d="M20.3708344,13.088768 L20.3708344,13.0831784 L20.3708344,13.088768" id="Fill-34" fill="#40A149"></path>
                    <path d="M20.3713907,13.0787066 L20.3713907,13.0742349 L20.3713907,13.0787066" id="Fill-35" fill="#40A149"></path>
                    <path d="M20.3713907,13.0697632 L20.3713907,13.0652914 L20.3713907,13.0697632" id="Fill-36" fill="#40A149"></path>
                    <path d="M20.3713907,13.0602607 L20.3713907,13.0569069 L20.3713907,13.0602607" id="Fill-37" fill="#40A149"></path>
                    <path d="M20.3713907,13.0507583 L20.3713907,13.0490814 L20.3713907,13.0507583" id="Fill-38" fill="#40A149"></path>
                    <g id="Group-42" transform="translate(10.569536, 0.000000)">
                        <mask id="mask-8" fill="white">
                            <use xlink:href="#path-7"></use>
                        </mask>
                        <g id="Clip-40"></g>
                        <path d="M21.0183576,9.90768762 L21.0183576,9.90712865 C21.0183576,9.90712865 21.0183576,9.90712865 21.0183576,9.90768762" id="Fill-39" fill="#40A149" mask="url(#mask-8)"></path>
                        <path d="M11.3082914,9.24587086 C10.4282384,8.71764717 9.28561589,8.30009893 7.8509404,8.28612476 L7.7864106,8.28612476 C7.74135099,8.28612476 7.69629139,8.28668372 7.6506755,8.28724269 C7.50715232,8.11284503 7.35417219,7.94403704 7.19117881,7.78081871 C5.82437086,6.409673 4.03422517,5.72382066 2.2424106,5.72382066 C1.62270199,5.72382066 1.00354967,5.80542982 0.401086093,5.96976608 C1.06140397,2.6718616 4.04646358,0.181105263 7.60339073,0.181105263 C7.62786755,0.181105263 7.65234437,0.18166423 7.67682119,0.18166423 C11.3477881,0.216879142 13.2630993,2.69366131 13.7548609,3.43708723 C14.2599735,2.70987135 16.1941987,0.29737037 19.8139868,0.29737037 C19.841245,0.29737037 19.8696159,0.297929337 19.8968742,0.297929337 C23.8943841,0.340410819 27.1230993,3.51198879 27.1664901,7.40351608 C26.8277086,7.34258869 26.4811391,7.30234308 26.1251126,7.29898928 C26.1034172,7.29843031 26.0817219,7.29843031 26.0600265,7.29843031 C24.0612715,7.29843031 22.68,8.18327485 21.8544636,8.95520809 C21.1552053,8.65504288 20.3925298,8.47337865 19.5942517,8.41915887 C18.7564768,7.78976218 17.5587815,7.21961598 15.9622252,7.20452388 L15.8976954,7.20452388 C14.0725033,7.20452388 12.428106,7.99490302 11.3082914,9.24587086" id="Fill-41" fill="#0DA74E" mask="url(#mask-8)"></path>
                    </g>
                    <path d="M12.0987815,12.3045375 C11.2593377,10.5795658 10.836,8.93340838 10.8343311,7.37780361 C10.8343311,7.34650146 10.8348874,7.31519932 10.8348874,7.28389717 C10.8387815,6.83504678 10.8855099,6.39569883 10.9706225,5.96976608 C11.5730861,5.80542982 12.1922384,5.72382066 12.811947,5.72382066 C14.6037616,5.72382066 16.3939073,6.409673 17.7607152,7.78081871 C17.9237086,7.94403704 18.0766887,8.11284503 18.2202119,8.28724269 C15.4832583,8.33978558 13.1295894,9.97867641 12.0987815,12.3045375" id="Fill-43" fill="#0D833F"></path>
                    <path d="M31.5901192,9.91104142 C31.5895629,9.90992349 31.5884503,9.90880556 31.587894,9.90768762 C31.5884503,9.90880556 31.5895629,9.90992349 31.5901192,9.91104142 M31.5901192,9.91104142 C31.7308609,9.70757749 32.0062252,9.34536696 32.424,8.95520809 C32.4245563,8.95520809 32.4251126,8.95520809 32.4262252,8.95576706 C32.0090066,9.34592593 31.7308609,9.70757749 31.5901192,9.91104142 M31.587894,9.90712865 C31.3904106,9.61087622 30.921457,8.99098197 30.1593377,8.4185999 C30.1610066,8.4185999 30.1626755,8.41915887 30.1637881,8.41915887 C30.925351,8.99098197 31.3904106,9.61143519 31.587894,9.90712865" id="Fill-44" fill="#4FB16A"></path>
                    <g id="Group-48" transform="translate(12.794702, 8.384503)">
                        <mask id="mask-10" fill="white">
                            <use xlink:href="#path-9"></use>
                        </mask>
                        <g id="Clip-46"></g>
                        <path d="M18.7954172,1.5265385 L18.7954172,1.5265385 C18.7948609,1.52542057 18.7937483,1.52430263 18.7931921,1.5231847 L18.7931921,1.52262573 C18.5957086,1.22693226 18.130649,0.606479045 17.3690861,0.0346559454 C18.1673642,0.088875731 18.9300397,0.270539961 19.629298,0.570705166 C19.2115232,0.960864035 18.9361589,1.32307456 18.7954172,1.5265385" id="Fill-45" fill="#0E833F" mask="url(#mask-10)"></path>
                        <path d="M11.0924503,21.7997076 L11.0891126,21.7997076 C9.85080795,21.7807027 5.57960265,18.554905 3.61088742,16.3861135 C2.05605298,14.6712032 0.870596026,13.0161023 0.0595231788,11.4308723 C1.41242384,11.4219288 2.76254305,11.0222675 3.9285298,10.2330063 C6.22545695,12.5091194 10.1267285,15.3749425 11.3383311,15.3928294 L11.3422252,15.3928294 C11.7071523,15.3928294 12.3263046,15.1329098 13.0717351,14.7175975 C14.367894,15.905961 16.0245298,17.1692261 17.2472583,17.8752013 C15.0727152,19.7751296 12.0837616,21.7997076 11.0924503,21.7997076 M7.57613245,4.71712135 L7.57613245,4.71432651 L7.57613245,4.71712135 M7.57613245,4.70817788 L7.57613245,4.70426511 L7.57613245,4.70817788 M7.57613245,4.69867544 C7.57613245,4.6975575 7.57613245,4.6958806 7.57668874,4.6942037 C7.57613245,4.6958806 7.57613245,4.6975575 7.57613245,4.69867544 M7.57668874,4.68973197 L7.57668874,4.68526023 L7.57668874,4.68973197 M7.57668874,4.6807885 L7.57668874,4.6757578 L7.57668874,4.6807885 M7.57668874,4.672404 L7.57668874,4.66625536 L7.57668874,4.672404 M7.57668874,4.66457846 C7.60561589,3.20958772 8.17025166,1.88204142 9.08312583,0.861367934 C9.0847947,0.861926901 9.08590728,0.863044834 9.08701987,0.863603801 C8.1735894,1.88427729 7.60561589,3.20902875 7.57668874,4.66457846" id="Fill-47" fill="#0DA74E" opacity="0.75" mask="url(#mask-10)"></path>
                    </g>
                    <path d="M12.8542252,19.8153752 L12.8542252,19.8153752 C11.9830728,18.1138801 11.5441589,16.4928762 11.5430464,14.9663377 L11.5430464,14.8791389 C11.5508344,13.9646691 11.7483179,13.0949167 12.0987815,12.3045375 C12.9738278,14.1032929 14.3016954,15.9875702 16.0757086,17.9439542 C16.2720795,18.1597154 16.4890331,18.385538 16.7232318,18.6175093 C15.557245,19.4067705 14.2071258,19.8064318 12.8542252,19.8153752" id="Fill-49" fill="#0D833F"></path>
                    <path d="M24.1369272,23.7773324 L24.1330331,23.7773324 C22.9214305,23.7594454 19.0201589,20.8936223 16.7232318,18.6175093 C17.0892715,18.3698869 17.4369536,18.0836959 17.7607152,17.7589362 C20.3496954,15.146884 20.5026755,11.0574825 18.2202119,8.28724269 C18.2658278,8.28668372 18.3108874,8.28612476 18.355947,8.28612476 L18.4204768,8.28612476 C19.8551523,8.30009893 20.9977748,8.71764717 21.8778278,9.24587086 C20.9649536,10.2665443 20.4003179,11.5940906 20.3713907,13.0490814 L20.3713907,13.0507583 L20.3713907,13.0569069 L20.3713907,13.0602607 L20.3713907,13.0652914 L20.3713907,13.0697632 L20.3713907,13.0742349 L20.3713907,13.0787066 C20.3708344,13.0803835 20.3708344,13.0820604 20.3708344,13.0831784 L20.3708344,13.088768 L20.3708344,13.0926808 L20.3708344,13.0988294 L20.3708344,13.1016243 L20.3708344,13.1105677 C20.3702781,13.1312495 20.3702781,13.1519313 20.3702781,13.173172 C20.3686093,15.8176442 21.8338808,18.7801686 24.7288212,21.9718694 C25.049245,22.3251365 25.4380927,22.7097057 25.8664371,23.1021004 C25.1210066,23.5174128 24.5018543,23.7773324 24.1369272,23.7773324" id="Fill-50" fill="#0D833F"></path>
                    <path d="M16.7232318,18.6175093 C16.4890331,18.385538 16.2720795,18.1597154 16.0757086,17.9439542 C14.3016954,15.9875702 12.9738278,14.1032929 12.0987815,12.3045375 C13.1295894,9.97867641 15.4832583,8.33978558 18.2202119,8.28724269 C20.5026755,11.0574825 20.3496954,15.146884 17.7607152,17.7589362 C17.4369536,18.0836959 17.0892715,18.3698869 16.7232318,18.6175093" id="Fill-51" fill="#08642F"></path>
                </g>
            </g>
        </g>
    </g>
</svg>